<?xml version="1.0" encoding="UTF-8"?>
<svg id="_图层_1" data-name="图层 1" xmlns="http://www.w3.org/2000/svg" viewBox="0 0 2600 1080">
  <defs>
    <style>
      .cls-1 {
        fill: #fff;
      }

      .cls-2 {
        fill: #9e2d2d;
      }
    </style>
  </defs>
  <g>
    <path class="cls-1" d="M480.3,229.17h45.08v2.56h-2.09c-4.28,0-7.51,1.55-9.69,4.64-2.18,3.1-3.26,7.79-3.26,14.08v44.47l33.76-38.76c2.24-2.68,3.75-4.86,4.51-6.55.77-1.68,1.15-3.64,1.15-5.89,0-3.66-1.09-6.57-3.26-8.74-2.18-2.17-5.13-3.25-8.87-3.25h-1.68v-2.56h41.67v2.56h-1.02c-5.75,0-13.92,6.14-24.53,18.43l-14.02,16.02,21.52,47.32c2.38,5.27,4.89,9.08,7.52,11.45,2.63,2.37,5.7,3.55,9.21,3.55h1.33v2.85h-43.96v-2.85h2.29c6.49,0,9.74-2.19,9.74-6.58,0-.78-.15-1.62-.43-2.52-.29-.9-.88-2.35-1.76-4.35l-16.32-36.13-16.83,19.31v11.7c0,6.24,1.09,10.9,3.26,13.97s5.41,4.61,9.69,4.61h2.09v2.85h-44.98v-2.85h1.99c4.39,0,7.66-1.54,9.82-4.61,2.16-3.07,3.24-7.73,3.24-13.97v-59.46c0-6.29-1.08-10.98-3.24-14.08-2.16-3.1-5.43-4.64-9.82-4.64h-2.09v-2.56Z"/>
    <path class="cls-1" d="M623.65,227.12h1.89l28.66,89.37c.92,2.78,1.95,5.07,3.09,6.88,1.14,1.8,2.42,3.11,3.85,3.91,1.43.8,3.11,1.21,5.05,1.21h1.89v2.85h-41.36v-2.85h5.41c2.69,0,4.65-.52,5.89-1.57,1.24-1.05,1.86-2.67,1.86-4.86,0-1.36-.25-3.02-.74-4.97-.49-1.95-1.57-5.49-3.24-10.6-.1-.29-.25-.78-.46-1.46-.2-.68-.43-1.34-.66-1.98l-1.17-3.73h-30.19l-2.3,7.61c-.75,2.58-1.12,5.19-1.12,7.83,0,2.24.43,4.46,1.3,6.66.87,2.19,2,3.85,3.39,4.97.92.78,1.74,1.31,2.47,1.57.73.27,1.78.45,3.14.55v2.85h-29.02v-2.85c2.11-.34,3.78-.88,5.02-1.61,1.24-.73,2.63-1.95,4.16-3.66,3.6-4,7.12-11.53,10.56-22.6l22.64-73.5ZM618.25,251.04l-13.97,45.56h28.3l-14.33-45.56Z"/>
    <path class="cls-1" d="M672.97,229.17h29.78l26.83,78.18,26.62-78.18h28.1v2.71h-2.6c-4.39,0-7.64,1.52-9.77,4.57-2.12,3.05-3.19,7.72-3.19,14.01v59.46c0,6.24,1.07,10.9,3.21,13.97,2.14,3.07,5.39,4.61,9.74,4.61h2.6v2.85h-46.05v-2.85h3.06c4.35,0,7.59-1.52,9.72-4.57,2.12-3.05,3.19-7.72,3.19-14.01v-69.48h-.2l-30.6,90.91h-1.73l-30.96-90.62h-.2v65.9c0,4.58.61,8.47,1.84,11.67,1.22,3.19,3.03,5.66,5.41,7.39,2.38,1.73,5.27,2.67,8.67,2.82v2.85h-33.46v-2.85h.71c4.59,0,8.19-1.93,10.81-5.78,2.62-3.85,3.93-9.07,3.93-15.65v-56.61c0-6.34-1.05-11.02-3.16-14.04-2.11-3.02-5.37-4.53-9.79-4.53h-2.5v-2.71Z"/>
    <path class="cls-1" d="M792.92,328.49h1.99c4.39,0,7.64-1.52,9.77-4.57,2.12-3.05,3.19-7.72,3.19-14.01.27-2.63.48-4.96.64-6.98.15-2.02.25-4.34.28-6.95.03-2.61.03-5.89,0-9.84-.14-16.67-.48-29.23-1.02-37.67-.2-3.41-.59-6.07-1.15-7.97s-1.4-3.49-2.52-4.75c-2.04-2.58-5.1-3.88-9.18-3.88h-1.99v-2.71h44.88v2.71h-1.99c-4.39,0-7.63,1.51-9.74,4.53-2.11,3.02-3.16,7.7-3.16,14.04v59.46c0,6.29,1.06,10.96,3.19,14.01,2.12,3.05,5.36,4.57,9.72,4.57h1.99v2.85h-44.88v-2.85Z"/>
    <path class="cls-1" d="M925.87,227.12c6.66,0,12.76,1.52,18.28,4.57,5.52,3.05,10.33,7.5,14.41,13.35,3.43,4.97,6.09,10.52,7.96,16.64,1.87,6.12,2.8,12.37,2.8,18.76,0,9.61-1.9,18.46-5.69,26.55-3.79,8.09-8.94,14.51-15.45,19.23-6.51,4.73-13.64,7.09-21.39,7.09-5.92,0-11.48-1.34-16.7-4.02-5.22-2.68-9.82-6.47-13.8-11.37s-7.08-10.62-9.31-17.15c-2.23-6.53-3.34-13.36-3.34-20.48,0-9.46,1.92-18.28,5.76-26.48,3.84-8.19,8.99-14.69,15.45-19.49,6.46-4.8,13.46-7.2,21.01-7.2ZM927.2,229.75c-3.09,0-6.01.77-8.75,2.3-2.74,1.54-5.04,3.72-6.91,6.55-2.04,3.07-3.78,6.72-5.23,10.93-1.45,4.22-2.53,8.92-3.26,14.12-.73,5.19-1.1,10.79-1.1,16.78,0,7.51.58,14.35,1.73,20.51,1.16,6.17,2.82,11.48,5,15.94,2.18,4.46,4.78,7.86,7.8,10.2,3.03,2.34,6.39,3.51,10.1,3.51,5.03,0,9.41-2.06,13.13-6.18,3.72-4.12,6.58-10.01,8.57-17.66,1.99-7.65,2.98-16.75,2.98-27.28,0-6.83-.54-13.21-1.63-19.16-1.09-5.95-2.65-11.13-4.69-15.54-2.04-4.41-4.51-7.91-7.4-10.5-1.43-1.36-3.08-2.46-4.95-3.29-1.87-.83-3.67-1.24-5.41-1.24Z"/>
    <path class="cls-1" d="M980.49,229.17h28.61l49.52,73.57v-44.03c0-5.36-.64-10.06-1.91-14.08s-3.12-7.08-5.53-9.18c-1.29-1.17-2.59-2-3.9-2.49-1.31-.49-3.14-.85-5.48-1.1v-2.71h35.29v2.71h-.71c-5.13,0-9.04,2.34-11.73,7.02-2.69,4.68-4.03,11.48-4.03,20.4v73.06h-1.68l-61.5-90.62v60.7c0,5.9.49,10.62,1.48,14.15.99,3.54,2.58,6.3,4.79,8.3,1.8,1.56,3.99,2.56,6.58,3,1.43.34,3.47.59,6.12.73v2.71h-37.18v-2.71c3.81-.29,6.91-1.25,9.31-2.89,2.4-1.63,4.16-4.06,5.3-7.28,1.14-3.22,1.71-7.22,1.71-11.99v-57.78c0-3.56-.55-6.58-1.66-9.07-1.1-2.49-2.71-4.4-4.82-5.74-2.11-1.34-4.66-2.01-7.65-2.01h-.92v-2.71Z"/>
    <path class="cls-1" d="M1116.3,229.17h83.54v51.85l-1.63.15c-.85-12.97-3.57-24.11-8.16-33.42-5.44-10.58-12.34-15.87-20.71-15.87h-3.72v78.04c0,12.39,4.3,18.58,12.9,18.58h10.76v2.85h-62.22v-2.85h10.66c8.64,0,12.95-6.19,12.95-18.58v-78.04h-4.59c-8.5,0-15.4,5.7-20.71,17.11-2.62,5.61-4.61,12.29-5.97,20.04-.44,2.63-.88,6.63-1.33,11.99h-1.78v-51.85Z"/>
    <path class="cls-1" d="M1206.01,229.17h41.67v2.71h-5.1c-2.31,0-4.13.68-5.46,2.05-1.33,1.37-1.99,3.29-1.99,5.78,0,2.34.49,5.12,1.48,8.34l19.43,61.14,16.32-52.73c1.29-4.05,1.94-7.53,1.94-10.46,0-4.19-.91-7.53-2.73-10.02-1.82-2.49-4.34-3.85-7.57-4.1v-2.71h28.71v2.71c-2.72.44-5.15,1.57-7.29,3.4-2.14,1.83-4.1,4.46-5.87,7.9-1.77,3.44-3.55,8.01-5.35,13.71l-23.66,76.43-1.79.15-27.59-86.3c-3.26-10.19-7.48-15.29-12.65-15.29h-2.5v-2.71Z"/>
    <path class="cls-1" d="M1392.26,291.92l-5.1,39.27h-54.01c.21-4.78,2.02-10.07,5.46-15.87,3.06-5.02,8.94-12.02,17.65-20.99,4.79-5.07,7.72-8.26,8.77-9.58.2-.29.44-.62.71-.99.27-.37.58-.79.92-1.28,2.72-4.05,4.67-8.07,5.86-12.07,1.19-4,1.79-8.51,1.79-13.53,0-8.58-1.47-15.16-4.41-19.75-2.94-4.58-7.12-6.88-12.52-6.88-4.08,0-7.84,1.2-11.27,3.58-3.44,2.39-6.14,5.63-8.11,9.73-1.97,4.1-2.96,8.58-2.96,13.46,0,5.31.83,7.97,2.5,7.97.68,0,1.07-.71,1.17-2.12.14-1.17.38-2.36.71-3.58.92-3.02,2.08-5.23,3.49-6.62,1.41-1.39,3.17-2.08,5.28-2.08,1.73,0,3.29.54,4.67,1.61,1.38,1.07,2.44,2.6,3.19,4.57.75,1.98,1.12,4.16,1.12,6.55,0,2.73-.48,5.21-1.45,7.42-.97,2.22-2.28,3.96-3.93,5.23-1.65,1.27-3.51,1.9-5.58,1.9-3.84,0-7-1.9-9.46-5.7-2.46-3.8-3.7-8.65-3.7-14.55,0-3.56.48-7.06,1.45-10.5s2.37-6.47,4.21-9.11c4.96-7.26,12.62-10.9,22.95-10.9,4.28,0,8.24.74,11.88,2.23,3.64,1.49,6.76,3.62,9.38,6.4,2.62,2.78,4.62,6.05,6.02,9.8,1.39,3.75,2.09,7.83,2.09,12.21,0,6.39-1.55,12.09-4.64,17.11-1.29,2.24-2.79,4.24-4.49,6-3.26,3.07-8.16,6.56-14.69,10.46-9.15,5.51-15.55,10.31-19.23,14.41-.85.88-2.48,2.88-4.9,6h33.3c3.09,0,5.45-.4,7.06-1.21s2.88-2.25,3.8-4.35c.92-2.1,1.71-5.24,2.4-9.43l.71-4.83h1.89Z"/>
    <path class="cls-1" d="M1400.52,229.17h28.61l49.52,73.57v-44.03c0-5.36-.64-10.06-1.91-14.08s-3.12-7.08-5.53-9.18c-1.29-1.17-2.59-2-3.9-2.49-1.31-.49-3.13-.85-5.48-1.1v-2.71h35.29v2.71h-.71c-5.13,0-9.04,2.34-11.73,7.02s-4.03,11.48-4.03,20.4v73.06h-1.68l-61.5-90.62v60.7c0,5.9.49,10.62,1.48,14.15.99,3.54,2.58,6.3,4.79,8.3,1.8,1.56,4,2.56,6.58,3,1.43.34,3.47.59,6.12.73v2.71h-37.18v-2.71c3.81-.29,6.91-1.25,9.31-2.89,2.4-1.63,4.16-4.06,5.3-7.28,1.14-3.22,1.71-7.22,1.71-11.99v-57.78c0-3.56-.55-6.58-1.66-9.07-1.11-2.49-2.71-4.4-4.82-5.74-2.11-1.34-4.66-2.01-7.65-2.01h-.92v-2.71Z"/>
    <path class="cls-1" d="M1501.96,229.17h47.28c7.68,0,14.39,1.38,20.12,4.13,5.73,2.76,10.55,6.98,14.46,12.69,3.54,4.92,6.26,10.48,8.19,16.67,1.92,6.19,2.88,12.56,2.88,19.09,0,7.17-1.04,13.8-3.11,19.89-2.07,6.1-5.01,11.36-8.8,15.8-3.79,4.44-8.29,7.86-13.49,10.28-5.2,2.41-10.83,3.62-16.88,3.62h-50.64v-2.85h2.6c4.39,0,7.64-1.52,9.77-4.57,2.12-3.05,3.19-7.72,3.19-14.01v-59.46c0-6.34-1.05-11.02-3.16-14.04-2.11-3.02-5.37-4.53-9.79-4.53h-2.6v-2.71ZM1532.55,231.88v96.61h13.77c3.91,0,7.22-.32,9.95-.95,2.72-.63,5.1-1.67,7.14-3.11,2.04-1.44,3.82-3.33,5.35-5.67,5.64-8.24,8.47-20.92,8.47-38.03,0-5.61-.35-10.91-1.05-15.91-.7-5-1.71-9.4-3.03-13.2-1.33-3.8-2.99-7.14-5-10.02-1.67-2.34-3.54-4.23-5.63-5.67-2.09-1.44-4.51-2.47-7.24-3.11-2.74-.63-6.03-.95-9.87-.95h-12.85Z"/>
    <path class="cls-1" d="M1680.25,227.12h1.89l28.66,89.37c.92,2.78,1.95,5.07,3.09,6.88,1.14,1.8,2.42,3.11,3.85,3.91,1.43.8,3.11,1.21,5.05,1.21h1.89v2.85h-41.36v-2.85h5.41c2.69,0,4.65-.52,5.89-1.57,1.24-1.05,1.86-2.67,1.86-4.86,0-1.36-.25-3.02-.74-4.97-.49-1.95-1.57-5.49-3.24-10.6-.1-.29-.25-.78-.46-1.46-.2-.68-.43-1.34-.66-1.98l-1.17-3.73h-30.19l-2.29,7.61c-.75,2.58-1.12,5.19-1.12,7.83,0,2.24.43,4.46,1.3,6.66.87,2.19,2,3.85,3.39,4.97.92.78,1.74,1.31,2.47,1.57.73.27,1.78.45,3.13.55v2.85h-29.02v-2.85c2.11-.34,3.78-.88,5.02-1.61,1.24-.73,2.63-1.95,4.16-3.66,3.6-4,7.12-11.53,10.56-22.6l22.64-73.5ZM1674.84,251.04l-13.97,45.56h28.3l-14.33-45.56Z"/>
    <path class="cls-1" d="M1730.28,229.17h48.6v2.71h-5.15c-4.39,0-7.63,1.51-9.74,4.53-2.11,3.02-3.16,7.7-3.16,14.04v78.18h18.46c3.64,0,7.07-1.16,10.3-3.47,3.23-2.31,6.04-5.55,8.42-9.69,1.43-2.58,2.69-5.14,3.77-7.68,1.09-2.53,2.12-5.61,3.11-9.21.98-3.61,1.96-7.75,2.91-12.43h1.89v45.2h-79.4l-.1-2.71h2.65c8.64,0,12.96-6.24,12.96-18.72v-59.46c0-12.38-4.32-18.58-12.96-18.58h-2.55v-2.71Z"/>
    <path class="cls-1" d="M1816.26,229.17h52.22c4.04,0,7.96.57,11.73,1.72,3.78,1.15,6.73,2.67,8.88,4.57,2.65,2.24,4.71,4.96,6.17,8.15,1.46,3.19,2.19,6.62,2.19,10.28,0,5.95-2.29,11.09-6.88,15.43-1.84,1.76-3.81,3.22-5.92,4.39-2.11,1.17-5.08,2.51-8.92,4.02v.29c4.89,1.32,8.92,2.9,12.09,4.75,8.63,5.46,12.95,12.97,12.95,22.53,0,5.27-1.3,9.86-3.9,13.79-2.6,3.93-6.32,6.95-11.14,9.07-4.83,2.12-10.52,3.18-17.08,3.18h-52.38v-2.85h2.09c4.39,0,7.64-1.52,9.77-4.57,2.12-3.05,3.19-7.72,3.19-14.01v-59.46c0-6.34-1.06-11.04-3.19-14.12-2.12-3.07-5.38-4.61-9.77-4.61h-2.09v-2.56ZM1846.35,231.73v44.76h15.45c12.68,0,19.02-7.92,19.02-23.77,0-7.12-1.35-12.4-4.05-15.83-2.7-3.44-6.88-5.16-12.52-5.16h-17.9ZM1846.35,279.34v49.44h16.01c6.77,0,11.95-2.16,15.55-6.47s5.41-10.45,5.41-18.39c0-6.78-1.46-12.16-4.38-16.16-2.21-3.17-4.91-5.36-8.11-6.58-3.2-1.22-7.87-1.83-14.03-1.83h-10.46Z"/>
    <path class="cls-1" d="M1908.72,229.17h49.42v2.71h-5.66c-4.35,0-7.6,1.52-9.74,4.57-2.14,3.05-3.21,7.72-3.21,14.01v51.85c0,5.9.95,10.97,2.86,15.21,1.9,4.24,4.64,7.51,8.21,9.8,3.57,2.29,7.82,3.44,12.75,3.44,4.32,0,8.35-.89,12.09-2.67,3.74-1.78,6.71-4.23,8.93-7.35,4.04-5.95,6.07-14.29,6.07-25.01v-36.57c0-11.7-2.38-19.65-7.14-23.84-1.36-1.22-2.79-2.07-4.28-2.56-1.5-.49-3.65-.78-6.48-.88v-2.71h34.58v2.71c-2.14.24-3.84.66-5.1,1.24s-2.55,1.56-3.88,2.93c-1.94,2.1-3.42,4.89-4.44,8.37-1.02,3.49-1.53,7.59-1.53,12.32v40.74c0,10.82-2.06,19.11-6.17,24.87-2.28,3.12-4.71,5.36-7.29,6.73-5.44,2.93-11.92,4.39-19.43,4.39-5.54,0-10.57-.78-15.1-2.34-4.52-1.56-8.26-3.78-11.22-6.66-5.58-5.51-8.37-13.41-8.37-23.7v-50.32c0-12.38-4.32-18.58-12.95-18.58h-2.91v-2.71Z"/>
    <path class="cls-1" d="M2011.38,229.17h29.78l26.82,78.18,26.62-78.18h28.1v2.71h-2.6c-4.38,0-7.64,1.52-9.77,4.57-2.12,3.05-3.19,7.72-3.19,14.01v59.46c0,6.24,1.07,10.9,3.21,13.97s5.39,4.61,9.74,4.61h2.6v2.85h-46.05v-2.85h3.06c4.35,0,7.59-1.52,9.71-4.57,2.12-3.05,3.19-7.72,3.19-14.01v-69.48h-.2l-30.6,90.91h-1.73l-30.96-90.62h-.2v65.9c0,4.58.61,8.47,1.84,11.67,1.22,3.19,3.03,5.66,5.41,7.39,2.38,1.73,5.27,2.67,8.67,2.82v2.85h-33.46v-2.85h.71c4.59,0,8.19-1.93,10.81-5.78,2.62-3.85,3.93-9.07,3.93-15.65v-56.61c0-6.34-1.05-11.02-3.16-14.04-2.11-3.02-5.37-4.53-9.79-4.53h-2.5v-2.71Z"/>
  </g>
  <g>
    <path class="cls-2" d="M65.67,507.9v-15.87c0-5.29,3.21-7.94,9.62-7.94h76.73c5.45,0,8.18,2.65,8.18,7.94v276.59c0,3.85.23,6.34.71,7.46.47,1.12,1.89,2.17,4.25,3.13,5.67,2.25,8.51,7.21,8.51,14.91,0,8.82-.4,14.11-1.2,15.87-.8,1.77-3.36,2.65-7.68,2.65h-93.11c-2.24-.32-3.68-1.32-4.32-3.01s-.96-6.13-.96-13.35c0-8.66,2.08-13.71,6.25-15.15,5.13-1.76,7.7-4.97,7.7-9.62v-239.8c0-9.3-3.45-14.91-10.34-16.84-2.89-.8-4.33-3.13-4.33-6.98ZM133.01,415.79c18.12,0,27.18,6.1,27.18,18.28,0,9.62-6.05,17.76-18.16,24.41-12.11,6.66-25.86,9.98-41.25,9.98-19.88,0-29.82-6.65-29.82-19.96,0-10.58,6.98-18.68,20.92-24.29,13.95-5.61,27.66-8.42,41.13-8.42Z"/>
    <path class="cls-2" d="M462.94,538.15l-11.24-62.48c-.96-5.93-4.09-11.62-9.38-17.08-3.53-3.52-5.29-6.89-5.29-10.1v-16.84c0-4.81,2.32-7.22,6.96-7.22h98.4c3.2,0,5.24.8,6.12,2.41.88,1.6,1.32,5.21,1.32,10.82,0,8.5-.44,13.59-1.32,15.27-.88,1.68-2.91,3.41-6.08,5.17-4.79,2.57-7.18,5.14-7.18,7.7,0,3.37.64,8.35,1.92,14.93l27.65,155.07,28.75-160.11c.16-1.6.24-3.29.24-5.06,0-7.39-4.08-13.01-12.25-16.87-4.16-1.92-6.32-7.37-6.48-16.35,0-2.41-.08-4.09-.24-5.05v-2.16c0-3.85,2.88-5.77,8.63-5.77h55.13c3.83,0,6.31.68,7.43,2.04,1.12,1.36,1.68,4.29,1.68,8.78,0,1.44-.08,2.89-.24,4.33l-.72,9.38c-.64,3.69-3.21,6.98-7.7,9.86-4.49,2.89-7.38,7.78-8.66,14.67l-57.96,317.48c-2.25,12.51-4.09,19.96-5.53,22.37-1.44,2.41-4.09,3.61-7.94,3.61h-40.41c-4.33,0-7.06-4.57-8.18-13.71-.16-1.76-.32-3.13-.48-4.09l-30.52-169.68-30.33,172.57c-1.12,6.9-2.33,11.1-3.61,12.63-1.29,1.52-3.37,2.29-6.25,2.29h-42.09c-4.81,0-8.26-8.42-10.34-25.25-.32-3.04-.64-5.37-.96-6.98l-57.48-311.23c-1.29-6.57-4.65-11.38-10.1-14.43-4.49-2.41-6.73-5.93-6.73-10.58v-18.52c0-3.69,2.24-5.53,6.73-5.53h95.25c3.21,0,5.45.84,6.73,2.53,1.28,1.68,1.92,5.57,1.92,11.67,0,6.9-.24,11.23-.71,12.99-.48,1.77-1.98,3.77-4.52,6.01-3.19,3.04-4.78,6.17-4.78,9.37,0,3.69.48,8.25,1.44,13.7l30.48,162.38,18.92-104.94Z"/>
    <path class="cls-2" d="M658.54,507.9v-15.87c0-5.29,3.21-7.94,9.62-7.94h76.72c5.45,0,8.18,2.65,8.18,7.94v276.59c0,3.85.23,6.34.71,7.46.47,1.12,1.89,2.17,4.25,3.13,5.67,2.25,8.51,7.21,8.51,14.91,0,8.82-.4,14.11-1.2,15.87-.8,1.77-3.36,2.65-7.68,2.65h-93.11c-2.24-.32-3.68-1.32-4.32-3.01-.64-1.68-.96-6.13-.96-13.35,0-8.66,2.08-13.71,6.25-15.15,5.13-1.76,7.7-4.97,7.7-9.62v-239.8c0-9.3-3.45-14.91-10.34-16.84-2.89-.8-4.33-3.13-4.33-6.98ZM725.89,415.79c18.12,0,27.18,6.1,27.18,18.28,0,9.62-6.05,17.76-18.16,24.41-12.11,6.66-25.86,9.98-41.25,9.98-19.88,0-29.82-6.65-29.82-19.96,0-10.58,6.97-18.68,20.92-24.29,13.95-5.61,27.66-8.42,41.13-8.42Z"/>
    <path class="cls-2" d="M786.26,444.17v-12.03c0-5.13,3.37-7.7,10.1-7.7h74.32c4.01,0,6.65.32,7.94.96,1.28.64,1.92,3.37,1.92,8.18v336c0,7.38,2.41,11.95,7.22,13.71,3.37,1.29,5.05,4.01,5.05,8.18v13.71c0,4.97-3.61,7.46-10.82,7.46h-88.27c-4.97,0-7.46-2.48-7.46-7.46v-13.71c0-5.61,2.48-9.78,7.46-12.51,3.21-1.6,5.21-3.08,6.01-4.45.8-1.36,1.2-3.97,1.2-7.82v-298c0-5.61-2.16-9.38-6.49-11.3-5.45-2.72-8.18-7.13-8.18-13.23Z"/>
    <path class="cls-2" d="M914.45,444.17v-12.03c0-5.13,3.37-7.7,10.1-7.7h74.32c4.01,0,6.65.32,7.94.96,1.28.64,1.92,3.37,1.92,8.18v336c0,7.38,2.41,11.95,7.21,13.71,3.37,1.29,5.05,4.01,5.05,8.18v13.71c0,4.97-3.61,7.46-10.82,7.46h-88.27c-4.97,0-7.46-2.48-7.46-7.46v-13.71c0-5.61,2.48-9.78,7.46-12.51,3.21-1.6,5.21-3.08,6.01-4.45.8-1.36,1.2-3.97,1.2-7.82v-298c0-5.61-2.17-9.38-6.49-11.3-5.45-2.72-8.18-7.13-8.18-13.23Z"/>
    <path class="cls-2" d="M1330.81,533.48l62.3,229.84c2.08,7.87,6.09,13.25,12.03,16.13,3.85,1.92,5.77,6.25,5.77,12.99,0,.8-.24,5.61-.72,14.43-.48,3.85-3.85,5.77-10.11,5.77h-95.74c-3.53,0-5.86-.64-6.97-1.92-1.12-1.28-1.68-4.81-1.68-10.58,0-.96.16-5.13.48-12.51.48-2.89,2.41-4.97,5.77-6.25,5.13-1.76,7.7-4.73,7.7-8.9,0-1.12-.16-2.49-.48-4.09l-33.69-121.38-8.16,18.11v98.2c0,8.19,3.61,14.45,10.82,18.78,3.04,1.77,4.57,5.77,4.57,12.03,0,7.38-.64,12.31-1.92,14.79-1.29,2.49-4.41,3.73-9.38,3.73h-100.78c-3.69,0-6.25-.77-7.7-2.3-1.44-1.53-2.16-5.86-2.16-12.96s.56-11.59,1.68-13.44c1.12-1.86,3.28-3.51,6.49-4.97,5.93-2.4,8.9-6.73,8.9-12.98v-288.64c0-7.21-2.89-12.58-8.66-16.1-3.85-2.4-6.17-4.37-6.97-5.89-.8-1.52-1.2-4.69-1.2-9.5,0-10.9.4-17.2,1.2-18.88.8-1.68,3.13-2.53,6.97-2.53h109.68c5.13,0,7.7,2.09,7.7,6.25,0,12.99-.24,20.49-.72,22.49-.48,2.01-2.81,4.21-6.97,6.61-7.7,4.01-11.54,9.13-11.54,15.37v123.23l52.26-119.2c2.89-6.48,4.33-11.38,4.33-14.71,0-2.05-1.93-4.5-5.78-7.35-4.19-2.89-6.74-5.37-7.62-7.46-.89-2.08-1.33-7.37-1.33-15.87,0-6.25,2.33-9.38,7-9.38h63.93c3.7,0,5.95.72,6.75,2.15.8,1.44,1.21,5.57,1.21,12.42,0,7.32-.52,11.78-1.56,13.38-1.04,1.59-4.29,3.5-9.74,5.73-4.17,1.6-6.82,2.89-7.94,3.85-1.12.96-2.49,3.05-4.09,6.26l-33.89,65.25Z"/>
    <path class="cls-2" d="M1517.91,516.8c19.08-24.05,40.89-36.08,65.42-36.08,16.75,0,29.56,5.41,38.42,16.23,8.86,10.82,13.29,24.41,13.29,40.77v230.41c0,5.13,2,9.06,6.01,11.79,3.69,2.25,5.53,8.02,5.53,17.32,0,7.38-.6,11.79-1.8,13.23-1.2,1.44-3.73,2.17-7.58,2.17h-67.58c-9.62-8.18-14.43-18.84-14.43-31.99v-228.73c0-12.51-5.13-18.76-15.39-18.76-6.73,0-14.03,3.53-21.89,10.58v224.4c0,5.77,2.8,10.26,8.42,13.47,3.37,1.92,5.05,5.45,5.05,10.58v12.27c0,5.45-3.93,8.18-11.79,8.18h-85.38c-4.17,0-6.82-.6-7.94-1.8-1.12-1.2-1.68-4.21-1.68-9.02v-8.9c0-4.65,1.44-7.94,4.33-9.86,3.85-2.72,6.33-5.29,7.46-7.7,1.12-2.41,1.68-7.7,1.68-15.87v-235.23c0-5.61-2.73-9.7-8.18-12.27-3.05-1.44-4.57-4.01-4.57-7.7v-12.75c0-4.97,2.24-7.46,6.73-7.46h78.41c3.37,0,5.45.48,6.25,1.44.8.96,1.2,2.97,1.2,6.01v25.25Z"/>
    <path class="cls-2" d="M1773.34,480.72c30.14,0,55.32,13.51,75.52,40.53,20.2,27.02,30.3,67.15,30.3,120.38,0,57.41-10.26,100.82-30.79,130.24-20.53,29.43-46.1,44.13-76.72,44.13-21.17,0-39.53-6.73-55.08-20.2-15.55-13.47-27.54-31.43-35.96-53.88-8.42-22.45-12.63-53.15-12.63-92.12,0-55.64,9.66-97.73,28.98-126.27,19.32-28.54,44.77-42.81,76.36-42.81ZM1790.66,541.09c0-19.88-5.77-29.82-17.32-29.82-12.51,0-18.76,12.19-18.76,36.56v199.87c0,24.21,5.69,36.32,17.08,36.32,12.66,0,19-12.11,19-36.32v-206.6Z"/>
    <path class="cls-2" d="M2016.4,673.67l16.97-91.2-11.34-54.85c-1.12-5.93-3.77-10.26-7.94-12.99-4.01-2.72-6.01-5.77-6.01-9.14v-12.75c0-5.77,2.8-8.66,8.42-8.66h87.79c5.29,0,8.42.76,9.38,2.28.96,1.53,1.44,3.65,1.44,6.37v12.75c0,4.81-2.46,8.02-7.4,9.62-5.1,1.6-7.64,4-7.64,7.2,0,.8.32,2.96.96,6.48l27.19,141.52,25.2-139.32c.32-1.44.48-2.89.48-4.33,0-4.97-2.42-9.14-7.25-12.51-5-3.53-7.49-8.74-7.49-15.63,0-8.18.32-12.63.96-13.35.64-.72,3.21-1.08,7.7-1.08h43.77c4.01,0,6.61.52,7.82,1.56,1.2,1.04,1.8,3.41,1.8,7.09v10.34c0,4.49-1.85,8.02-5.53,10.58-5.45,3.85-8.74,8.5-9.86,13.95l-49.55,271.3c-1.77,8.98-3.09,14.07-3.97,15.27-.88,1.2-3.25,1.8-7.1,1.8h-37.52c-4.81,0-7.86-.64-9.14-1.92s-2.57-5.37-3.85-12.27l-26.26-139.26-26.41,136.38c0,.16-.24,1.77-.72,4.81-.96,6.58-1.92,10.26-2.89,11.06-.96.8-4.01,1.2-9.14,1.2h-35.84c-4.97,0-7.82-.88-8.54-2.65-.72-1.76-3.33-15.07-7.82-39.93l-47.62-245.81c-.96-5.29-3.85-10.02-8.66-14.19-2.41-2.08-3.61-4.73-3.61-7.94v-11.3c0-4.01.56-6.69,1.68-8.06,1.12-1.36,3.61-2.04,7.46-2.04h80.57c4.49,0,7.37.68,8.66,2.04,1.28,1.36,1.92,4.05,1.92,8.06v11.79c0,3.21-1.75,6.01-5.25,8.42-3.19,2.24-4.79,4.73-4.79,7.45,0,1.76.48,5.05,1.44,9.85l27.5,141.97Z"/>
    <path class="cls-2" d="M2347.21,424.44h104.14c3.53,0,5.77.76,6.73,2.28.96,1.53,1.44,6.22,1.44,14.07s-2.33,13.07-6.98,15.63c-3.53,1.93-5.89,3.93-7.09,6.02-1.2,2.09-1.8,6.1-1.8,12.03v269.58c0,7.38,2.08,13.36,6.25,17.93,4.17,4.57,9.46,6.86,15.87,6.86,5.93,0,10.98-2.56,15.15-7.7,4.17-5.13,6.25-10.82,6.25-17.08v-269.38c0-4.65-.44-7.9-1.32-9.74-.88-1.84-3.09-4.13-6.61-6.85-5.45-4.2-8.18-10.66-8.18-19.38,0-6.78.76-10.86,2.28-12.23,1.52-1.37,3.73-2.06,6.61-2.06h51.95c5.77,0,8.66,2.89,8.66,8.66v11.54c0,5.13-.32,8.38-.96,9.74-.64,1.36-2.49,2.61-5.53,3.73-7.54,2.57-11.3,7.78-11.3,15.63v262.4c0,24.86-7.14,44.54-21.41,59.05-14.27,14.51-34.15,21.77-59.65,21.77-28.54,0-50.31-7.7-65.3-23.09-15-15.39-22.49-37.6-22.49-66.62v-253.5c0-6.73-3.53-11.7-10.58-14.91-3.53-1.6-5.65-3.09-6.37-4.45-.72-1.36-1.08-4.29-1.08-8.78,0-9.3.56-15.15,1.68-17.56,1.12-2.4,4.33-3.61,9.62-3.61Z"/>
  </g>
</svg>