<?xml version="1.0" encoding="UTF-8"?>
<svg id="_图层_1" data-name="图层 1" xmlns="http://www.w3.org/2000/svg" viewBox="0 0 3800 2160">
  <defs>
    <style>
      .cls-1 {
        fill: #001627;
      }
    </style>
  </defs>
  <g>
    <path class="cls-1" d="M21.6,860.28V150.51h209.6l169.1,278.67c14.6,24.14,28.26,48.28,40.97,72.41,12.7,24.14,25.01,50.73,36.92,79.79,11.91,29.06,24.06,62.96,36.44,101.7h-16.67c-1.59-25.72-3.57-55.5-5.95-89.32-2.38-33.82-4.53-67.17-6.43-100.03-1.91-32.87-2.86-60.57-2.86-83.12V150.51h198.16v709.77h-209.6l-157.67-259.14c-17.79-29.53-33.43-57.08-46.92-82.65-13.5-25.56-26.52-52.64-39.06-81.22-12.55-28.58-26.91-61.61-43.11-99.08h20.01c2.54,33.34,5,66.53,7.38,99.56,2.38,33.03,4.29,63.68,5.72,91.94,1.43,28.27,2.14,52.09,2.14,71.45v259.14H21.6Z"/>
    <path class="cls-1" d="M1280.43,869.8c-64.47,0-122.82-13.97-175.06-41.92-52.24-27.94-93.6-68.99-124.09-123.14-30.49-54.14-45.73-120.44-45.73-198.88s15.24-145.76,45.73-200.07c30.49-54.3,71.85-95.34,124.09-123.14,52.23-27.79,110.59-41.68,175.06-41.68s122.73,13.9,174.82,41.68c52.08,27.79,93.44,68.83,124.09,123.14,30.64,54.3,45.97,120.99,45.97,200.07s-15.33,145.21-45.97,199.35c-30.65,54.15-72.01,95.11-124.09,122.9-52.09,27.79-110.36,41.68-174.82,41.68ZM1280.43,702.13c32.07,0,58.99-7.54,80.74-22.63,21.75-15.08,38.18-37.23,49.3-66.45,11.11-29.21,16.67-64.94,16.67-107.18s-5.56-78.52-16.67-107.89c-11.12-29.37-27.55-51.6-49.3-66.69-21.76-15.08-48.67-22.63-80.74-22.63s-58.52,7.55-80.27,22.63c-21.76,15.09-38.27,37.32-49.54,66.69-11.28,29.38-16.91,65.34-16.91,107.89s5.63,77.97,16.91,107.18c11.27,29.22,27.78,51.37,49.54,66.45,21.75,15.09,48.51,22.63,80.27,22.63Z"/>
    <path class="cls-1" d="M2000.02,860.28l-188.16-709.77h215.31l56.69,275.33c7.3,34.62,13.81,72.49,19.53,113.61,5.72,41.13,11.35,82.17,16.91,123.14,5.55,40.97,11.19,78.92,16.91,113.85h-38.11c6.67-34.93,13.02-72.88,19.05-113.85,6.03-40.97,12.3-82.01,18.82-123.14,6.5-41.12,13.73-78.99,21.67-113.61l62.88-275.33h192.45l62.88,275.33c7.93,34.62,15.16,72.49,21.67,113.61,6.51,41.13,12.78,82.17,18.82,123.14,6.03,40.97,12.38,78.92,19.05,113.85h-38.58c6.03-34.93,11.75-72.88,17.15-113.85,5.4-40.97,11.03-82.01,16.91-123.14,5.87-41.12,12.3-78.99,19.29-113.61l57.16-275.33h215.31l-188.16,709.77h-217.69l-70.5-289.15c-12.07-49.85-21.67-103.68-28.82-161.48-7.15-57.79-15.8-113.37-25.96-166.72h50.49c-12.07,53.35-21.04,108.77-26.91,166.25-5.88,57.48-15.01,111.47-27.39,161.96l-70.98,289.15h-217.69Z"/>
    <path class="cls-1" d="M21.6,1760.28v-709.77h499.22v155.29H214.05v160.05h276.28v151.48H214.05v242.94H21.6Z"/>
    <path class="cls-1" d="M887.38,1768.85c-60.97,0-114.41-10.72-160.29-32.15-45.89-21.44-81.62-51.92-107.18-91.46-25.57-39.54-38.35-86.29-38.35-140.29v-454.44h192.45v438.24c0,22.23,4.92,41.85,14.77,58.83,9.84,16.99,23.26,30.33,40.25,40.01,16.99,9.69,36.44,14.53,58.35,14.53s41.92-4.84,59.07-14.53c17.15-9.68,30.64-23.02,40.49-40.01,9.84-16.98,14.77-36.6,14.77-58.83v-438.24h192.45v454.44c0,53.99-12.86,100.75-38.58,140.29s-61.61,70.02-107.66,91.46c-46.05,21.44-99.56,32.15-160.53,32.15Z"/>
    <path class="cls-1" d="M1256.8,1205.8v-155.29h616.4v155.29h-211.98v554.47h-192.45v-554.47h-211.98Z"/>
    <path class="cls-1" d="M2241.67,1768.85c-60.97,0-114.41-10.72-160.29-32.15-45.89-21.44-81.62-51.92-107.18-91.46-25.57-39.54-38.35-86.29-38.35-140.29v-454.44h192.45v438.24c0,22.23,4.92,41.85,14.77,58.83,9.84,16.99,23.26,30.33,40.25,40.01,16.98,9.69,36.44,14.53,58.35,14.53s41.92-4.84,59.07-14.53c17.15-9.68,30.64-23.02,40.49-40.01,9.84-16.98,14.77-36.6,14.77-58.83v-438.24h192.45v454.44c0,53.99-12.86,100.75-38.58,140.29s-61.61,70.02-107.66,91.46c-46.05,21.44-99.56,32.15-160.53,32.15Z"/>
    <path class="cls-1" d="M2630.14,1760.28v-709.77h305.82c52.71,0,98.84,9.61,138.38,28.82,39.54,19.22,70.34,46.85,92.41,82.89,22.07,36.05,33.11,79.16,33.11,129.33s-11.28,93.69-33.82,128.62c-22.55,34.94-54.15,61.29-94.79,79.07-40.65,17.79-87.97,26.68-141.95,26.68h-182.92v-149.57h143.86c22.87,0,42.4-2.86,58.59-8.57,16.2-5.72,28.58-14.77,37.16-27.15s12.86-28.74,12.86-49.06-4.29-36.84-12.86-49.54c-8.57-12.7-20.96-22.07-37.16-28.11-16.2-6.03-35.73-9.05-58.59-9.05h-67.64v555.43h-192.45ZM3014.08,1760.28l-173.39-325.82h204.83l178.16,325.82h-209.6Z"/>
    <path class="cls-1" d="M3272.04,1760.28v-709.77h511.6v155.29h-319.16v120.04h292.48v151.48h-292.48v127.66h317.25v155.29h-509.7Z"/>
  </g>
  <path class="cls-1" d="M3419.04,145.78c-201.36,0-364.6,163.24-364.6,364.6s163.24,364.6,364.6,364.6,364.6-163.24,364.6-364.6-163.23-364.6-364.6-364.6ZM3302.47,803.68h-36.73v-6.16l18.89-19.52c1.94-2.04,3.56-3.84,4.85-5.41,1.29-1.57,2.28-3.07,2.95-4.52s1.01-2.99,1.01-4.63c0-1.87-.43-3.47-1.29-4.81-.86-1.34-2.03-2.38-3.51-3.1-1.48-.72-3.17-1.08-5.06-1.08s-3.68.4-5.15,1.21c-1.47.81-2.6,1.95-3.4,3.42-.8,1.47-1.19,3.2-1.19,5.19h-8.17c0-3.38.78-6.35,2.35-8.9,1.57-2.55,3.71-4.53,6.42-5.94,2.71-1.41,5.81-2.11,9.29-2.11s6.64.7,9.31,2.09c2.67,1.39,4.77,3.28,6.29,5.65,1.52,2.38,2.28,5.07,2.28,8.08,0,2.04-.38,4.03-1.14,5.97-.76,1.94-2.09,4.13-3.99,6.57-1.9,2.44-4.58,5.4-8.04,8.88l-10.9,11.38v.45h24.93v7.28ZM3419.04,578.93c-37.86,0-68.55-30.69-68.55-68.55s30.69-68.55,68.55-68.55,68.55,30.69,68.55,68.55-30.69,68.55-68.55,68.55Z"/>
  <g>
    <path d="M22.67,2062.67v-180.49h64.69c13.89,0,25.48,2.4,34.77,7.21,9.29,4.81,16.23,11.49,20.84,20.05,4.6,8.56,6.9,18.37,6.9,29.44s-2.32,20.9-6.97,29.25c-4.65,8.36-11.61,14.84-20.9,19.44-9.29,4.6-20.92,6.91-34.89,6.91h-48.58v-23.62h45.91c8.88,0,16.05-1.27,21.5-3.82s9.47-6.2,12.05-10.96c2.58-4.76,3.88-10.5,3.88-17.2s-1.29-12.64-3.88-17.57c-2.59-4.92-6.62-8.74-12.11-11.45-5.49-2.71-12.72-4.06-21.68-4.06h-33.92v156.87h-27.62ZM125.27,2062.67l-43.73-81.53h30.65l44.46,81.53h-31.37Z"/>
    <path d="M618.77,2062.67v-180.49h113.63v23.74h-86.01v53.79h79.83v23.62h-79.83v55.6h86.73v23.74h-114.35Z"/>
    <path d="M1278.71,2065.1c-15.59,0-29.52-3.69-41.79-11.08-12.28-7.39-21.93-18.01-28.95-31.86-7.03-13.85-10.54-30.38-10.54-49.61s3.51-35.88,10.54-49.73c7.03-13.85,16.68-24.49,28.95-31.92,12.27-7.43,26.21-11.14,41.79-11.14,9.53,0,18.47,1.37,26.83,4.12,8.36,2.75,15.83,6.74,22.41,11.99,6.58,5.25,12.03,11.63,16.35,19.14,4.32,7.51,7.25,16.03,8.78,25.56h-27.74c-1.13-5.73-3.13-10.8-6-15.2-2.87-4.4-6.36-8.14-10.48-11.21-4.12-3.07-8.72-5.37-13.81-6.91-5.09-1.53-10.46-2.3-16.11-2.3-10.34,0-19.61,2.6-27.8,7.81-8.2,5.21-14.64,12.84-19.32,22.89-4.68,10.05-7.03,22.35-7.03,36.89s2.38,26.83,7.15,36.89c4.76,10.05,11.22,17.65,19.38,22.77,8.16,5.13,17.36,7.69,27.62,7.69,5.65,0,11-.79,16.05-2.36,5.05-1.58,9.65-3.88,13.81-6.91,4.16-3.03,7.67-6.76,10.54-11.21,2.87-4.44,4.86-9.49,6-15.14h27.86c-1.37,8.88-4.16,17.02-8.36,24.41-4.2,7.39-9.57,13.83-16.11,19.32-6.54,5.49-14.03,9.71-22.47,12.66-8.44,2.95-17.63,4.42-27.56,4.42Z"/>
    <path d="M1896.24,2065.1c-15.59,0-29.54-3.69-41.85-11.08-12.32-7.39-22.01-18.01-29.07-31.86-7.07-13.85-10.6-30.38-10.6-49.61s3.53-35.88,10.6-49.73c7.07-13.85,16.76-24.49,29.07-31.92,12.31-7.43,26.27-11.14,41.85-11.14s29.5,3.72,41.73,11.14c12.23,7.43,21.88,18.07,28.95,31.92,7.07,13.85,10.6,30.43,10.6,49.73s-3.53,35.76-10.6,49.61c-7.07,13.85-16.72,24.47-28.95,31.86s-26.15,11.08-41.73,11.08ZM1896.24,2039.9c10.26,0,19.44-2.56,27.56-7.69,8.12-5.13,14.54-12.72,19.26-22.77,4.72-10.05,7.09-22.35,7.09-36.89s-2.36-27.07-7.09-37.13c-4.72-10.05-11.14-17.64-19.26-22.77-8.12-5.13-17.3-7.69-27.56-7.69s-19.58,2.59-27.74,7.75c-8.16,5.17-14.6,12.78-19.32,22.83-4.72,10.05-7.09,22.39-7.09,37.01s2.36,26.81,7.09,36.83c4.72,10.01,11.16,17.61,19.32,22.77,8.16,5.17,17.4,7.75,27.74,7.75Z"/>
    <path d="M2446.55,2062.67v-180.49h64.69c13.89,0,25.48,2.4,34.77,7.21,9.29,4.81,16.23,11.49,20.83,20.05,4.6,8.56,6.91,18.37,6.91,29.44s-2.32,20.9-6.97,29.25c-4.64,8.36-11.61,14.84-20.9,19.44-9.29,4.6-20.92,6.91-34.89,6.91h-48.58v-23.62h45.91c8.88,0,16.05-1.27,21.5-3.82s9.47-6.2,12.05-10.96c2.58-4.76,3.88-10.5,3.88-17.2s-1.29-12.64-3.88-17.57c-2.58-4.92-6.62-8.74-12.11-11.45-5.49-2.71-12.72-4.06-21.68-4.06h-33.92v156.87h-27.62ZM2549.16,2062.67l-43.73-81.53h30.65l44.46,81.53h-31.37Z"/>
    <path d="M3070.27,1882.18v180.49h-27.62v-180.49h27.62ZM3101.28,2062.67h-44.58v-24.23h43.12c13.65,0,24.99-2.54,34.04-7.63,9.04-5.09,15.83-12.58,20.35-22.47,4.52-9.89,6.78-21.94,6.78-36.16s-2.24-26.08-6.72-35.86c-4.48-9.77-11.14-17.2-19.99-22.29-8.84-5.09-19.85-7.63-33.01-7.63h-45.55v-24.23h47.37c17.76,0,32.99,3.59,45.67,10.78,12.68,7.19,22.41,17.5,29.19,30.95,6.78,13.45,10.18,29.54,10.18,48.27s-3.41,34.97-10.24,48.46c-6.83,13.49-16.72,23.86-29.68,31.13s-28.61,10.9-46.94,10.9Z"/>
    <path d="M3717.61,2065.7c-13.49,0-25.2-2.14-35.13-6.42-9.93-4.28-17.71-10.4-23.32-18.35-5.61-7.95-8.7-17.42-9.27-28.41h27.74c.56,6.54,2.68,11.95,6.36,16.23,3.67,4.28,8.46,7.47,14.35,9.57,5.89,2.1,12.28,3.15,19.14,3.15,7.67,0,14.48-1.19,20.41-3.57,5.94-2.38,10.64-5.77,14.11-10.18,3.47-4.4,5.21-9.51,5.21-15.32,0-5.25-1.51-9.55-4.54-12.9-3.03-3.35-7.11-6.14-12.23-8.36-5.13-2.22-10.96-4.18-17.5-5.88l-21.08-5.82c-14.78-3.96-26.31-9.81-34.58-17.56-8.28-7.75-12.42-17.81-12.42-30.16,0-10.42,2.8-19.52,8.42-27.32,5.61-7.79,13.24-13.85,22.89-18.17,9.65-4.32,20.53-6.48,32.65-6.48s23.24,2.16,32.65,6.48c9.41,4.32,16.8,10.24,22.17,17.75,5.37,7.51,8.18,16.07,8.42,25.68h-26.89c-.89-8.24-4.71-14.62-11.45-19.14-6.74-4.52-15.24-6.78-25.5-6.78-7.27,0-13.59,1.13-18.96,3.39-5.37,2.26-9.53,5.39-12.48,9.39-2.95,4-4.42,8.54-4.42,13.63,0,5.74,1.76,10.36,5.27,13.87,3.51,3.51,7.79,6.3,12.84,8.36,5.05,2.06,9.87,3.69,14.48,4.91l17.56,4.6c5.73,1.45,11.65,3.41,17.75,5.88,6.1,2.46,11.73,5.65,16.9,9.57,5.17,3.92,9.35,8.76,12.54,14.54,3.19,5.77,4.79,12.74,4.79,20.9,0,10.17-2.62,19.26-7.87,27.26-5.25,8-12.86,14.28-22.83,18.84-9.97,4.56-22.03,6.84-36.16,6.84Z"/>
  </g>
</svg>