<?xml version="1.0" encoding="UTF-8"?>
<svg id="_图层_1" data-name="图层 1" xmlns="http://www.w3.org/2000/svg" viewBox="0 0 3840 2160">
  <g>
    <path d="M198.8,740.71v-12.13h144.72v24.25h8.08v8.08h-8.08v16.17h32.34v8.08h-32.34v97.02h8.08v8.08h-8.08v16.17h-40.42v8.08h40.42v24.25h24.25v8.08h-24.25v72.76h-8.08v8.08h8.08v8.08h16.17v8.08h-16.17v8.08h40.42v8.08h-40.42v8.08h-16.17v8.08h16.17v72.76h-32.34v8.08h32.34v8.08h8.08v8.08h-8.08v8.08h-16.17v8.08h16.17v88.93h16.17v8.08h-16.17v8.08h32.34v8.08h-32.34v8.08h-24.25v8.08h24.25v8.08h-40.42v4.04h-144.72v-4.04h40.42v-8.08h-24.25v-8.08h24.25v-8.08h32.34v-8.08h-32.34v-8.08h16.17v-8.08h-16.17v-88.93h-16.17v-8.08h16.17v-8.08h8.08v-8.08h-8.08v-8.08h-32.34v-8.08h32.34v-72.76h-16.17v-8.08h16.17v-8.08h40.42v-8.08h-40.42v-8.08h16.17v-8.08h-16.17v-8.08h-8.08v-8.08h8.08v-72.76h24.25v-8.08h-24.25v-24.25h-40.42v-8.08h40.42v-16.17h8.08v-8.08h-8.08v-97.02h32.34v-8.08h-32.34v-16.17h8.08v-8.08h-8.08v-12.13Z"/>
    <path d="M481.76,740.71v-12.13h147.14l12.94,24.25c8.89,0,8.89-.81,11.32,8.08h-7.28l8.08,16.17h32.34c1.62,2.43,3.23,5.66,4.04,8.08h-15.36c-5.66,0-10.51,0-16.17.81,16.98,32.34,33.96,64.68,49.32,96.21,8.89,0,9.7-.81,12.13,8.08h-7.28c.81,2.43,2.43,5.66,4.04,8.08,1.62,2.43,3.23,5.66,4.04,8.08h-40.42c.81,2.43,2.43,5.66,4.04,8.08h41.23l11.32,24.25h25.06c1.62,2.43,3.23,5.66,4.04,8.08h-24.25c12.94,24.25,25.06,48.51,37.19,71.95l-7.28,1.62c.81,3.23,2.43,4.85,3.23,5.66.81.81,2.43,1.62,4.04,1.62.81,0,2.43,0,3.23.81.81.81,2.43,3.23,4.04,7.28h8.89c2.43,0,5.66.81,8.08,2.42l2.43,4.04-.81.81c-2.43.81-4.85.81-7.28.81h-7.28l3.23,8.08h36.38c-.81-1.62-.81-4.04-.81-8.08h8.08c2.43,0,5.66-.81,8.08-1.62v-4.04c-.81-.81-.81-1.62-.81-2.42h-16.17c-.81-1.62-.81-4.04-.81-8.08-4.04,0-6.47-.81-8.08-2.43.81-.81.81-2.42,1.62-3.23,0-.81.81-1.62,1.62-2.43h4.04v-4.04c0-11.32-.81-22.64-2.43-34.76-1.62-11.32-2.43-22.64-2.43-33.96h24.25v-8.08h-24.25v-24.25h-40.42v-8.08h40.42v-16.17h8.08v-8.08h-8.08v-97.02h32.34v-8.08h-32.34v-16.17h8.08v-8.08h-8.08v-24.25h137.44v24.25h8.08v8.08h-8.08v16.17h32.34v8.08h-32.34v97.02h8.08v8.08h-8.08v16.17h-40.42v8.08h40.42v24.25h24.25v8.08h-24.25v72.76h-8.08v8.08h8.08v8.08h16.17v8.08h-16.17v8.08h40.42v8.08h-40.42v8.08h-16.17v8.08h16.17v72.76h-32.34v8.08h32.34v8.08h8.08v8.08h-8.08v8.08h-16.17v8.08h16.17v88.93h16.17v8.08h-16.17v8.08h32.34v8.08h-32.34v8.08h-24.25v8.08h24.25v8.08h-40.42v4.04h-110.76c-12.13,0-25.06-.81-37.19-1.62l-.81-1.62c6.47-.81,12.94-.81,20.21-.81h19.4c-.81-3.23-2.43-5.66-3.23-8.08h-24.25l-4.85-8.08h24.25c-.81-2.42-2.43-5.66-4.04-8.08h32.34c-1.62-2.42-3.23-5.66-4.04-8.08h-32.34c-.81-2.43-2.43-5.66-4.04-8.08h16.17c-1.62-2.43-3.23-5.66-4.04-8.08h-16.17l-45.27-88.93h-16.17l-4.85-8.08h16.17c-.81-2.42-2.43-5.66-4.04-8.08h8.08c-2.43-4.04-5.66-7.28-8.08-8.08-2.43-.81-5.66-4.04-8.08-8.08h-32.34c-1.62-1.62-3.23-4.04-4.04-7.28,5.66-.81,10.51-.81,16.17-.81,4.85,0,9.7,0,15.36-.81-5.66-12.13-12.13-23.45-17.79-35.57-6.47-12.13-12.94-24.25-18.59-36.38h-16.98c-.81-.81-1.62-2.42-1.62-4.04-.81-1.62-.81-3.23-1.62-4.04h15.36l-3.23-8.08h20.21c6.47,0,12.94,0,19.4-.81-2.43-3.23-3.23-5.66-4.04-7.28h-40.42c-.81-2.42-2.43-5.66-4.04-8.08h16.17c-.81-2.42-2.43-5.66-4.04-8.08h-16.17l-3.23-8.08c-6.47,0-8.89,0-11.32-7.28,1.62-.81,4.04-.81,7.28-.81-5.66-12.13-10.51-24.25-16.17-36.38-5.66-12.13-10.51-24.25-16.17-36.38h-16.98v3.23c0,.81.81,4.04,1.62,11.32s1.62,15.36,2.43,24.25,2.43,16.17,3.23,23.45c.81,7.28.81,10.51.81,10.51h-8.08v2.43c0,6.47,3.23,5.66,8.89,5.66,0,4.04,0,6.47.81,8.08h16.17v8.08h-15.36v8.08c6.47,0,12.94,0,19.4-.81,6.47,0,12.94.81,19.4,1.62,1.62.81,2.43,3.23,2.43,7.28h-40.42c.81,1.62.81,4.04.81,8.08h-16.17v2.42c0,4.04,4.85,6.47,9.7,5.66h7.28c0,12.13,0,24.26.81,36.38.81,12.13.81,24.25.81,36.38h-32.34v8.08h32.34v8.08h8.08v8.08h-8.08v8.08h-16.17v8.08h16.17v88.93h16.17v8.08h-16.17v8.08h32.34v8.08h-32.34v8.08h-24.25v8.08h24.25v8.08h-40.42v4.04h-137.44v-4.04h40.42v-8.08h-24.25v-8.08h24.25v-8.08h32.34v-8.08h-32.34v-8.08h16.17v-8.08h-16.17v-88.93h-16.17v-8.08h16.17v-8.08h8.08v-8.08h-8.08v-8.08h-32.34v-8.08h32.34v-72.76h-16.17v-8.08h16.17v-8.08h40.42v-8.08h-40.42v-8.08h16.17v-8.08h-16.17v-8.08h-8.08v-8.08h8.08v-72.76h24.25v-8.08h-24.25v-24.25h-40.42v-8.08h40.42v-16.17h8.08v-8.08h-8.08v-97.02h32.34v-8.08h-32.34v-16.17h8.08v-8.08h-8.08v-12.13ZM562.6,908.87l-2.43,1.62c0,2.43,1.62,4.04,4.04,4.04h2.43c-.81-3.23-2.43-4.85-4.04-5.66ZM607.07,914.53h-2.43l-3.23,1.62c0,4.04.81,7.28,1.62,11.32s1.62,7.28.81,11.32h7.28c.81,0,2.43,0,3.23-.81h3.23c-3.23-8.08-6.47-16.17-10.51-23.45ZM642.64,938.78h-7.28c-2.43,0-4.85,0-6.47.81v7.28h16.98l-3.23-8.08ZM831.02,1060.86c-2.43-.81-5.66-.81-8.08-.81h-25.06c.81.81,1.62,2.43,2.43,4.04,0,1.62,0,3.23.81,4.04h-16.17l3.23,8.08h16.98c4.85,12.13,9.7,24.26,15.36,37.19,4.85,12.94,11.32,25.06,18.59,35.57l1.62-2.43c-.81-11.32-2.43-23.45-4.85-35.57s-3.23-23.45-3.23-34.77h-8.08c-3.23,0-5.66-.81-8.08-1.62.81-.81.81-2.43,0-3.23s-.81-2.43-.81-3.23h16.17v-5.66c-.81,0-.81-.81-.81-1.62ZM809.19,1149.79l-1.62.81-2.43-.81,1.62-.81c.81,0,1.62,0,2.43.81ZM870.63,1053.58c-2.43-.81-5.66-1.62-8.89-1.62h-27.49l3.23,8.08h33.96v-4.85l-.81-1.62Z"/>
    <path d="M1099.42,740.71v-12.13h384.02v24.25h8.08v8.08h-8.08v16.17h32.34v8.08h-32.34v63.87h-239.31v33.15h8.08v8.08h-8.08v16.17h-40.42v8.08h40.42v24.25h24.25v8.08h-24.25v33.96h205.35v38.81h-8.08v8.08h8.08v8.08h16.17v8.08h-16.17v8.08h40.42v8.08h-40.42v8.08h-16.17v8.08h16.17v25.06h-205.35v47.7h-32.34v8.08h32.34v8.08h8.08v8.08h-8.08v8.08h-16.17v8.08h16.17v88.93h16.17v8.08h-16.17v8.08h32.34v8.08h-32.34v8.08h-24.25v8.08h24.25v8.08h-40.42v4.04h-144.72v-4.04h40.42v-8.08h-24.25v-8.08h24.25v-8.08h32.34v-8.08h-32.34v-8.08h16.17v-8.08h-16.17v-88.93h-16.17v-8.08h16.17v-8.08h8.08v-8.08h-8.08v-8.08h-32.34v-8.08h32.34v-72.76h-16.17v-8.08h16.17v-8.08h40.42v-8.08h-40.42v-8.08h16.17v-8.08h-16.17v-8.08h-8.08v-8.08h8.08v-72.76h24.25v-8.08h-24.25v-24.25h-40.42v-8.08h40.42v-16.17h8.08v-8.08h-8.08v-97.02h32.34v-8.08h-32.34v-16.17h8.08v-8.08h-8.08v-12.13Z"/>
    <path d="M1587.72,740.71v-12.13h144.72v24.25h8.08v8.08h-8.08v16.17h32.34v8.08h-32.34v97.02h8.08v8.08h-8.08v16.17h-40.42v8.08h40.42v24.25h24.25v8.08h-24.25v72.76h-8.08v8.08h8.08v8.08h16.17v8.08h-16.17v8.08h40.42v8.08h-40.42v8.08h-16.17v8.08h16.17v72.76h-32.34v8.08h32.34v8.08h8.08v8.08h-8.08v8.08h-16.17v8.08h16.17v88.93h16.17v8.08h-16.17v8.08h32.34v8.08h-32.34v8.08h-24.25v8.08h24.25v8.08h-40.42v4.04h-144.72v-4.04h40.42v-8.08h-24.25v-8.08h24.25v-8.08h32.34v-8.08h-32.34v-8.08h16.17v-8.08h-16.17v-88.93h-16.17v-8.08h16.17v-8.08h8.08v-8.08h-8.08v-8.08h-32.34v-8.08h32.34v-72.76h-16.17v-8.08h16.17v-8.08h40.42v-8.08h-40.42v-8.08h16.17v-8.08h-16.17v-8.08h-8.08v-8.08h8.08v-72.76h24.25v-8.08h-24.25v-24.25h-40.42v-8.08h40.42v-16.17h8.08v-8.08h-8.08v-97.02h32.34v-8.08h-32.34v-16.17h8.08v-8.08h-8.08v-12.13Z"/>
    <path d="M1870.67,740.71v-12.13h147.14l12.94,24.25c8.89,0,8.89-.81,11.32,8.08h-7.28l8.08,16.17h32.34c1.62,2.43,3.23,5.66,4.04,8.08h-15.36c-5.66,0-10.51,0-16.17.81,16.98,32.34,33.96,64.68,49.32,96.21,8.89,0,9.7-.81,12.13,8.08h-7.28c.81,2.43,2.42,5.66,4.04,8.08,1.62,2.43,3.23,5.66,4.04,8.08h-40.42c.81,2.43,2.43,5.66,4.04,8.08h41.23l11.32,24.25h25.06c1.62,2.43,3.23,5.66,4.04,8.08h-24.25c12.94,24.25,25.06,48.51,37.19,71.95l-7.28,1.62c.81,3.23,2.43,4.85,3.23,5.66s2.43,1.62,4.04,1.62c.81,0,2.43,0,3.23.81s2.42,3.23,4.04,7.28h8.89c2.42,0,5.66.81,8.08,2.42l2.42,4.04-.81.81c-2.42.81-4.85.81-7.28.81h-7.28l3.23,8.08h36.38c-.81-1.62-.81-4.04-.81-8.08h8.08c2.43,0,5.66-.81,8.08-1.62v-4.04c-.81-.81-.81-1.62-.81-2.42h-16.17c-.81-1.62-.81-4.04-.81-8.08-4.04,0-6.47-.81-8.08-2.43.81-.81.81-2.42,1.62-3.23,0-.81.81-1.62,1.62-2.43h4.04v-4.04c0-11.32-.81-22.64-2.43-34.76-1.62-11.32-2.42-22.64-2.42-33.96h24.25v-8.08h-24.25v-24.25h-40.42v-8.08h40.42v-16.17h8.08v-8.08h-8.08v-97.02h32.34v-8.08h-32.34v-16.17h8.08v-8.08h-8.08v-24.25h137.44v24.25h8.08v8.08h-8.08v16.17h32.34v8.08h-32.34v97.02h8.08v8.08h-8.08v16.17h-40.42v8.08h40.42v24.25h24.25v8.08h-24.25v72.76h-8.08v8.08h8.08v8.08h16.17v8.08h-16.17v8.08h40.42v8.08h-40.42v8.08h-16.17v8.08h16.17v72.76h-32.34v8.08h32.34v8.08h8.08v8.08h-8.08v8.08h-16.17v8.08h16.17v88.93h16.17v8.08h-16.17v8.08h32.34v8.08h-32.34v8.08h-24.25v8.08h24.25v8.08h-40.42v4.04h-110.76c-12.13,0-25.06-.81-37.19-1.62l-.81-1.62c6.47-.81,12.94-.81,20.21-.81h19.4c-.81-3.23-2.42-5.66-3.23-8.08h-24.25l-4.85-8.08h24.25c-.81-2.42-2.43-5.66-4.04-8.08h32.34c-1.62-2.42-3.23-5.66-4.04-8.08h-32.34c-.81-2.43-2.43-5.66-4.04-8.08h16.17c-1.62-2.43-3.23-5.66-4.04-8.08h-16.17l-45.27-88.93h-16.17l-4.85-8.08h16.17c-.81-2.42-2.43-5.66-4.04-8.08h8.08c-2.42-4.04-5.66-7.28-8.08-8.08-2.43-.81-5.66-4.04-8.08-8.08h-32.34c-1.62-1.62-3.23-4.04-4.04-7.28,5.66-.81,10.51-.81,16.17-.81,4.85,0,9.7,0,15.36-.81-5.66-12.13-12.13-23.45-17.79-35.57-6.47-12.13-12.94-24.25-18.59-36.38h-16.98c-.81-.81-1.62-2.42-1.62-4.04-.81-1.62-.81-3.23-1.62-4.04h15.36l-3.23-8.08h20.21c6.47,0,12.94,0,19.4-.81-2.42-3.23-3.23-5.66-4.04-7.28h-40.42c-.81-2.42-2.42-5.66-4.04-8.08h16.17c-.81-2.42-2.42-5.66-4.04-8.08h-16.17l-3.23-8.08c-6.47,0-8.89,0-11.32-7.28,1.62-.81,4.04-.81,7.28-.81-5.66-12.13-10.51-24.25-16.17-36.38-5.66-12.13-10.51-24.25-16.17-36.38h-16.98v3.23c0,.81.81,4.04,1.62,11.32s1.62,15.36,2.43,24.25,2.42,16.17,3.23,23.45.81,10.51.81,10.51h-8.08v2.43c0,6.47,3.23,5.66,8.89,5.66,0,4.04,0,6.47.81,8.08h16.17v8.08h-15.36v8.08c6.47,0,12.94,0,19.4-.81,6.47,0,12.94.81,19.4,1.62,1.62.81,2.42,3.23,2.42,7.28h-40.42c.81,1.62.81,4.04.81,8.08h-16.17v2.42c0,4.04,4.85,6.47,9.7,5.66h7.28c0,12.13,0,24.26.81,36.38s.81,24.25.81,36.38h-32.34v8.08h32.34v8.08h8.08v8.08h-8.08v8.08h-16.17v8.08h16.17v88.93h16.17v8.08h-16.17v8.08h32.34v8.08h-32.34v8.08h-24.25v8.08h24.25v8.08h-40.42v4.04h-137.44v-4.04h40.42v-8.08h-24.25v-8.08h24.25v-8.08h32.34v-8.08h-32.34v-8.08h16.17v-8.08h-16.17v-88.93h-16.17v-8.08h16.17v-8.08h8.08v-8.08h-8.08v-8.08h-32.34v-8.08h32.34v-72.76h-16.17v-8.08h16.17v-8.08h40.42v-8.08h-40.42v-8.08h16.17v-8.08h-16.17v-8.08h-8.08v-8.08h8.08v-72.76h24.25v-8.08h-24.25v-24.25h-40.42v-8.08h40.42v-16.17h8.08v-8.08h-8.08v-97.02h32.34v-8.08h-32.34v-16.17h8.08v-8.08h-8.08v-12.13ZM1951.52,908.87l-2.43,1.62c0,2.43,1.62,4.04,4.04,4.04h2.43c-.81-3.23-2.43-4.85-4.04-5.66ZM1995.99,914.53h-2.43l-3.23,1.62c0,4.04.81,7.28,1.62,11.32.81,4.04,1.62,7.28.81,11.32h7.28c.81,0,2.43,0,3.23-.81h3.23c-3.23-8.08-6.47-16.17-10.51-23.45ZM2031.56,938.78h-7.28c-2.43,0-4.85,0-6.47.81v7.28h16.98l-3.23-8.08ZM2219.93,1060.86c-2.42-.81-5.66-.81-8.08-.81h-25.06c.81.81,1.62,2.43,2.43,4.04,0,1.62,0,3.23.81,4.04h-16.17l3.23,8.08h16.98c4.85,12.13,9.7,24.26,15.36,37.19,4.85,12.94,11.32,25.06,18.59,35.57l1.62-2.43c-.81-11.32-2.43-23.45-4.85-35.57-2.42-12.13-3.23-23.45-3.23-34.77h-8.08c-3.23,0-5.66-.81-8.08-1.62.81-.81.81-2.43,0-3.23-.81-.81-.81-2.43-.81-3.23h16.17v-5.66c-.81,0-.81-.81-.81-1.62ZM2198.11,1149.79l-1.62.81-2.43-.81,1.62-.81c.81,0,1.62,0,2.43.81ZM2259.55,1053.58c-2.42-.81-5.66-1.62-8.89-1.62h-27.49l3.23,8.08h33.96v-4.85l-.81-1.62Z"/>
    <path d="M2488.34,740.71v-12.13h144.72v24.25h8.08v8.08h-8.08v16.17h32.34v8.08h-32.34v97.02h8.08v8.08h-8.08v16.17h-40.42v8.08h40.42v24.25h24.25v8.08h-24.25v72.76h-8.08v8.08h8.08v8.08h16.17v8.08h-16.17v8.08h40.42v8.08h-40.42v8.08h-16.17v8.08h16.17v72.76h-32.34v8.08h32.34v8.08h8.08v8.08h-8.08v8.08h-16.17v8.08h16.17v88.93h16.17v8.08h-16.17v8.08h32.34v8.08h-32.34v8.08h-24.25v8.08h24.25v8.08h-40.42v4.04h-144.72v-4.04h40.42v-8.08h-24.25v-8.08h24.25v-8.08h32.34v-8.08h-32.34v-8.08h16.17v-8.08h-16.17v-88.93h-16.17v-8.08h16.17v-8.08h8.08v-8.08h-8.08v-8.08h-32.34v-8.08h32.34v-72.76h-16.17v-8.08h16.17v-8.08h40.42v-8.08h-40.42v-8.08h16.17v-8.08h-16.17v-8.08h-8.08v-8.08h8.08v-72.76h24.25v-8.08h-24.25v-24.25h-40.42v-8.08h40.42v-16.17h8.08v-8.08h-8.08v-97.02h32.34v-8.08h-32.34v-16.17h8.08v-8.08h-8.08v-12.13Z"/>
    <path d="M2725.21,740.71v-12.13h470.53v24.25h8.08v8.08h-8.08v16.17h32.34v8.08h-32.34v63.87h-163.31v33.15h8.08v8.08h-8.08v16.17h-40.42v8.08h40.42v24.25h24.25v8.08h-24.25v72.76h-8.08v8.08h8.08v8.08h16.17v8.08h-16.17v8.08h40.42v8.08h-40.42v8.08h-16.17v8.08h16.17v72.76h-32.34v8.08h32.34v8.08h8.08v8.08h-8.08v8.08h-16.17v8.08h16.17v88.93h16.17v8.08h-16.17v8.08h32.34v8.08h-32.34v8.08h-24.25v8.08h24.25v8.08h-40.42v4.04h-144.72v-4.04h40.42v-8.08h-24.25v-8.08h24.25v-8.08h32.34v-8.08h-32.34v-8.08h16.17v-8.08h-16.17v-88.93h-16.17v-8.08h16.17v-8.08h8.08v-8.08h-8.08v-8.08h-32.34v-8.08h32.34v-72.76h-16.17v-8.08h16.17v-8.08h40.42v-8.08h-40.42v-8.08h16.17v-8.08h-16.17v-8.08h-8.08v-8.08h8.08v-72.76h24.25v-8.08h-24.25v-24.25h-40.42v-8.08h40.42v-16.17h8.08v-8.08h-8.08v-33.15h-162.5v-63.87h32.34v-8.08h-32.34v-16.17h8.08v-8.08h-8.08v-12.13Z"/>
    <path d="M3194.13,728.58h153.61c1.62,4.04,3.23,8.08,4.85,12.13,1.62,4.04,3.23,8.08,4.04,12.13,8.89,0,8.08-.81,11.32,8.08-4.04,0-6.47.81-8.08,1.62.81,2.43,2.43,4.85,3.23,7.28l2.43,7.28h33.15l2.43,7.28c-5.66.81-10.51,1.62-16.17.81h-16.17c5.66,15.36,12.13,31.53,19.4,47.7,6.47,16.98,12.13,33.15,16.17,49.32h8.89c0,2.43.81,5.66,2.43,8.08h-8.08c.81,2.43,2.43,4.85,3.23,7.28.81,2.43,1.62,5.66,2.42,8.08-6.47.81-12.94,1.62-19.4.81-7.28-.81-13.74,0-20.21.81l2.43,7.28h40.42c1.62,4.04,3.23,8.08,4.85,12.13s3.23,8.08,4.04,12.13h24.25l2.42,7.28c-4.04.81-7.28,1.62-11.32.81-4.04,0-8.08,0-12.13.81,5.66,16.17,10.51,33.96,19.4,49.32,4.04-7.28,8.08-16.17,11.32-25.06,2.43-8.89,5.66-16.98,8.89-25.06h24.25l2.43-7.28c-4.04-.81-7.28-1.62-11.32-1.62-4.04.81-8.08.81-12.13.81,1.62-4.04,3.23-8.08,4.85-12.13.81-4.04,2.43-8.08,4.04-12.13h-20.21c-7.28.81-13.74,0-20.21-.81l2.43-7.28h41.23c.81-2.43,2.43-5.66,3.23-8.08.81-2.43,1.62-5.66,2.42-8.08,8.89,0,8.08.81,11.32-8.08h-8.08c11.32-32.34,23.45-64.68,36.38-97.02h32.34l2.43-7.28c-4.85-.81-9.7-1.62-15.36-1.62-5.66.81-10.51.81-15.36,0v-.81c0-1.62.81-4.04,2.42-7.28.81-3.23,1.62-5.66,2.43-7.28,8.89,0,8.08.81,11.32-8.08h-8.08c.81-4.04,2.43-8.08,4.04-12.13,1.62-4.04,3.23-8.08,4.85-12.13h151.18l-11.32,24.25h8.08l-3.23,8.08h-8.89c-1.62,5.66-4.04,11.32-7.28,16.17h32.34l-3.23,8.08h-33.15c-14.55,33.15-29.11,64.68-44.47,96.21,1.62.81,4.04.81,7.28.81-2.43,8.89-3.23,8.08-12.13,8.08l-6.47,16.17h-41.23c-.81.81-1.62,2.43-1.62,4.04-.81,1.62-.81,3.23-1.62,4.04h20.21c6.47,0,12.94,0,19.4.81v.81s-.81.81-1.62,3.23c-.81,2.43-2.43,5.66-3.23,8.08s-2.43,4.85-3.23,7.28c-1.62,2.43-2.42,4.04-2.42,4.04h23.45c-.81.81-1.62,2.43-1.62,4.04-.81,1.62-.81,3.23-1.62,4.04h-24.25l-33.96,72.76c-7.28,0-8.89,0-11.32,7.28,1.62.81,4.04.81,7.28.81l-3.23,8.08c2.43,0,5.66,0,8.08-.81,2.42,0,4.85.81,7.28,1.62l-2.43,4.85c-2.43,1.62-5.66,2.42-8.08,2.42h-8.89c-.81.81-.81,2.43-1.62,3.23-.81,1.62-.81,3.23-1.62,4.04,6.47.81,12.94,1.62,20.21.81h19.4c-.81,3.23-2.43,5.66-3.23,8.08h-41.23l-3.23,8.08h-16.17c-.81.81-.81,2.42-1.62,3.23-.81,1.62-.81,3.23-1.62,4.04,2.43.81,5.66,1.62,8.08.81,2.43-.81,4.85,0,7.28.81-.81,3.23-5.66,12.94-9.7,21.83-4.04,8.89-8.89,16.98-9.7,19.4v30.72h-32.34v8.08h32.34v8.08h8.08v8.08h-8.08v8.08h-16.17v8.08h16.17v88.93h16.17v8.08h-16.17v8.08h32.34v8.08h-32.34v8.08h-24.25v8.08h24.25v8.08h-40.42v4.04h-143.91v-4.04h40.42v-8.08h-24.25v-8.08h24.25v-8.08h32.34v-8.08h-32.34v-8.08h16.17v-8.08h-16.17v-88.93h-16.17v-8.08h16.17v-8.08h8.08v-8.08h-8.08v-8.08h-32.34v-8.08h32.34v-30.72l-19.4-42.04h-16.17c-1.62-2.42-3.23-5.66-4.04-8.08h16.17c-.81-.81-.81-2.43-1.62-4.04-.81-.81-.81-2.42-1.62-3.23,6.47-.81,12.94-1.62,20.21-1.62,6.47.81,12.94.81,19.4.81l-3.23-8.08h-40.42c-1.62-2.42-3.23-5.66-4.04-8.08h16.17c-.81-3.23-2.43-5.66-3.23-8.08h-16.98l-3.23-8.08c-7.28,0-8.89,0-11.32-7.28l7.28-1.62c-4.04-11.32-8.89-23.45-15.36-36.38-7.28-12.13-12.94-24.25-17.79-34.76,4.04-.81,8.08-.81,12.13-.81h11.32l-3.23-8.08h-24.25l-11.32-24.25h-40.42c-.81-2.43-2.43-5.66-4.04-8.08h40.42c-1.62-5.66-4.04-11.32-7.28-16.17h8.08l-3.23-8.08h-8.89l-44.47-95.4c4.04-.81,9.7-1.62,16.17-1.62h15.36l-3.23-8.08h-32.34c-3.23-4.85-5.66-10.51-7.28-16.17h7.28l-3.23-8.08h-8.08c-2.42-4.04-4.04-8.08-5.66-12.13-1.62-4.04-3.23-8.08-5.66-12.13Z"/>
  </g>
  <g>
    <path d="M201.24,680.51v-64.61h-12.33v-10.78h29.41l37.8,66.98v-56.2h-12.2v-10.78h35.37v10.78h-12.7v76.26h-13.35l-41.35-73.55v61.9h12.33v10.78h-35.31v-10.78h12.33Z"/>
    <path d="M309.75,661.31c0-9.25,3.06-16.84,9.17-22.77,6.11-5.93,13.57-8.89,22.36-8.89s16.04,2.92,22.24,8.77c6.19,5.84,9.29,13.47,9.29,22.89s-3.09,17.06-9.26,22.92c-6.17,5.86-13.6,8.8-22.27,8.8s-16.41-2.97-22.46-8.92c-6.05-5.95-9.08-13.54-9.08-22.8ZM322.2,661.28c0,5.92,1.85,10.77,5.54,14.55,3.7,3.78,8.21,5.67,13.54,5.67s9.94-1.91,13.6-5.74c3.65-3.82,5.48-8.65,5.48-14.49s-1.86-10.72-5.58-14.52c-3.72-3.8-8.22-5.71-13.5-5.71s-10.1,1.94-13.69,5.83c-3.59,3.89-5.39,8.69-5.39,14.4Z"/>
    <path d="M420.51,692.28l-16.07-50.49h-7.31v-10.47h25.27v10.47h-7.85l11.48,36.18,11.46-36.18h-6.54v-10.47h28.99v10.47h-6.6l11.46,36.18,11.51-36.18h-8.25v-10.47h27.07v10.47h-8.61l-16.08,50.49h-11.08l-13.75-43.36-14,43.36h-11.1Z"/>
    <path d="M581.46,660.5l-.81,30.79h-55.07c0-5.95,1.06-11.63,3.19-17.05,2.12-5.41,5.12-10.15,8.97-14.2,3.86-4.05,9.75-8.96,17.68-14.75,5-3.67,8.4-6.74,10.17-9.19,1.78-2.45,2.67-5.31,2.67-8.57,0-4-1.26-7.27-3.78-9.81-2.52-2.54-5.99-3.81-10.41-3.81-5.16,0-8.94,1.45-11.34,4.34-2.4,2.89-3.59,7.64-3.59,14.25,0,1.65.04,3.22.12,4.71h-11.46c-.04-1.49-.06-2.7-.06-3.65,0-9.33,2.21-16.63,6.63-21.9,4.42-5.27,10.9-7.9,19.45-7.9s15.25,2.25,19.85,6.75c4.6,4.5,6.91,10.04,6.91,16.6,0,5.49-1.51,10.18-4.52,14.06-3.02,3.88-8.78,8.82-17.28,14.81-8.26,5.86-13.68,10.63-16.26,14.31-2.58,3.68-4.08,6.94-4.49,9.79h32.46l.5-19.58h10.47Z"/>
    <path d="M627.83,680.51v-64.61h-10.9v-10.78h66.84v25.96h-10.65v-15.18h-32.27v25.52h27.81v10.78h-27.81v28.31h11.03v10.78h-34.94v-10.78h10.9Z"/>
    <path d="M780.2,680.82v10.47h-22.12v-6.88c-6.9,5.25-13.5,7.87-19.82,7.87-4.01,0-7.32-.88-9.94-2.63-2.62-1.75-4.37-4.03-5.23-6.81-.87-2.79-1.3-7.28-1.3-13.47v-27.57h-8.49v-10.47h20.26v36.55c0,4.42.12,7.39.37,8.92.25,1.53.97,2.79,2.17,3.78,1.2.99,2.7,1.49,4.52,1.49,5.45,0,11.27-2.6,17.47-7.81v-32.46h-10.59v-10.47h22.36v49.5h10.35Z"/>
    <path d="M810.65,641.79v-10.47h7.81v-9.23l11.77-10.78v20.01h11.09v10.47h-11.09v29.12c0,4.67.26,7.55.77,8.64.52,1.09,1.81,1.64,3.87,1.64,2.19,0,4.34-.41,6.44-1.24v10.72c-3.02,1.07-6.03,1.61-9.04,1.61-3.59,0-6.5-.8-8.73-2.39-2.23-1.59-3.63-3.58-4.21-5.98-.58-2.4-.87-6.52-.87-12.39v-29.73h-7.81Z"/>
    <path d="M940.66,680.82v10.47h-22.12v-6.88c-6.9,5.25-13.5,7.87-19.82,7.87-4.01,0-7.32-.88-9.94-2.63-2.62-1.75-4.37-4.03-5.23-6.81-.87-2.79-1.3-7.28-1.3-13.47v-27.57h-8.49v-10.47h20.26v36.55c0,4.42.12,7.39.37,8.92.25,1.53.97,2.79,2.17,3.78,1.2.99,2.7,1.49,4.52,1.49,5.45,0,11.27-2.6,17.47-7.81v-32.46h-10.59v-10.47h22.36v49.5h10.35Z"/>
    <path d="M982.14,680.82v-39.03h-12.08v-10.47h21.5v13.5c1.32-3.51,3.16-6.42,5.51-8.73,2.35-2.31,4.84-3.84,7.46-4.58,2.62-.74,6.2-1.11,10.75-1.11h3.1v11.89h-2.35c-5.99,0-10.46.6-13.41,1.8-2.95,1.2-5.14,3.38-6.57,6.54s-2.14,8.83-2.14,17v13.19h13.07v10.47h-36.92v-10.47h12.08Z"/>
    <path d="M1107.24,664.28h-50.42c.74,5.53,2.93,10.02,6.57,13.44,3.63,3.43,8.28,5.14,13.94,5.14,8.22,0,14.72-3.3,19.51-9.91l10.41,4.58c-3.39,5.25-7.78,9.14-13.19,11.68-5.41,2.54-11.07,3.81-16.97,3.81-9.17,0-17-2.86-23.51-8.58-6.5-5.72-9.76-13.43-9.76-23.14s3.17-16.79,9.51-22.73c6.34-5.95,13.62-8.92,21.84-8.92s15.35,2.9,21.9,8.7c6.55,5.8,9.94,14.44,10.19,25.92ZM1095.1,655.73c-.83-4.21-3.02-8.02-6.57-11.43-3.55-3.41-7.91-5.11-13.07-5.11-4.71,0-8.73,1.54-12.08,4.62-3.35,3.08-5.39,7.05-6.13,11.92h37.85Z"/>
    <path d="M1207.8,680.51v-64.61h-10.84v-10.78h30.79c9.04,0,15.82.64,20.32,1.92,4.5,1.28,8.27,4.18,11.31,8.7,3.04,4.52,4.55,9.86,4.55,16.01,0,4.92-1,9.32-3,13.23-2,3.9-4.48,6.78-7.43,8.64-2.95,1.86-6.28,3.11-9.97,3.75-3.7.64-9.28.96-16.76.96h-5.95v22.18h11.15v10.78h-35v-10.78h10.84ZM1220.81,647.93h7.43c8.47,0,14.33-1.21,17.59-3.62,3.26-2.42,4.89-6.68,4.89-12.79,0-3.88-.87-7.1-2.6-9.66-1.73-2.56-3.88-4.19-6.44-4.89-2.56-.7-6.84-1.05-12.82-1.05h-8.05v32.03Z"/>
    <path d="M1305.96,680.51v-64.61h-11.83v-10.78h35c7.31,0,13.11.57,17.41,1.7,4.29,1.14,7.85,3.53,10.65,7.19,2.81,3.65,4.21,8.21,4.21,13.66,0,11.4-5.92,18.56-17.76,21.49l15.22,31.35h10.53v10.78h-18.66l-19.62-40.27h-12.14v29.49h11.03v10.78h-35.87v-10.78h11.83ZM1318.97,640.25h10.16c4.91,0,8.54-.32,10.87-.96,2.33-.64,4.24-1.94,5.73-3.9,1.49-1.96,2.23-4.59,2.23-7.9,0-2.81-.75-5.18-2.26-7.12-1.51-1.94-3.37-3.17-5.58-3.69-2.21-.52-5.59-.77-10.13-.77h-11.03v24.35Z"/>
    <path d="M1409.14,680.51v-64.61h-11.15v-10.78h71.61v25.96h-10.65v-15.18h-36.8v25.65h32.03v10.78h-32.03v28.19h36.8v-15.67h10.65v26.45h-71.61v-10.78h11.15Z"/>
    <path d="M1503.58,691.29v-31.28h10.78v7.62c5.16,9.38,11.91,14.06,20.26,14.06,4.25,0,7.85-1.3,10.78-3.9,2.93-2.6,4.4-6.01,4.4-10.22s-1.2-7.03-3.59-8.83c-2.4-1.8-6.92-3.58-13.57-5.36-7.72-2.06-13.44-4.02-17.16-5.85-3.72-1.84-6.68-4.46-8.89-7.87-2.21-3.41-3.31-7.44-3.31-12.11,0-7.23,2.41-13,7.22-17.31,4.81-4.31,10.85-6.47,18.12-6.47s13.3,2.23,19.2,6.69v-5.76h10.53v26.14h-10.53v-6.01c-4.42-6.65-10.51-9.97-18.27-9.97-4.71,0-8.32,1.08-10.84,3.25-2.52,2.17-3.78,4.76-3.78,7.77,0,2.31.64,4.35,1.92,6.1,1.28,1.76,2.91,3.05,4.89,3.87,1.98.83,5.89,1.98,11.71,3.46,7.6,1.98,13.11,3.82,16.54,5.54,3.43,1.71,6.38,4.58,8.86,8.58,2.48,4.01,3.72,8.61,3.72,13.82,0,7.35-2.59,13.43-7.77,18.22-5.18,4.79-11.59,7.19-19.23,7.19s-14.91-2.83-21.19-8.49v7.12h-10.78Z"/>
    <path d="M1606.52,680.51v-64.61h-11.15v-10.78h71.61v25.96h-10.65v-15.18h-36.8v25.65h32.03v10.78h-32.03v28.19h36.8v-15.67h10.65v26.45h-71.61v-10.78h11.15Z"/>
    <path d="M1709.51,680.51v-64.61h-12.33v-10.78h29.41l37.8,66.98v-56.2h-12.2v-10.78h35.37v10.78h-12.7v76.26h-13.35l-41.35-73.55v61.9h12.33v10.78h-35.31v-10.78h12.33Z"/>
    <path d="M1843.1,680.51v-64.61h-17.78v21.99h-10.65v-32.77h69.81v32.77h-10.65v-21.99h-17.72v64.61h11.21v10.78h-35.25v-10.78h11.03Z"/>
    <path d="M1915.68,691.29v-31.28h10.78v7.62c5.16,9.38,11.92,14.06,20.26,14.06,4.25,0,7.85-1.3,10.78-3.9,2.93-2.6,4.4-6.01,4.4-10.22s-1.2-7.03-3.59-8.83-6.92-3.58-13.57-5.36c-7.72-2.06-13.44-4.02-17.16-5.85-3.72-1.84-6.68-4.46-8.89-7.87-2.21-3.41-3.31-7.44-3.31-12.11,0-7.23,2.41-13,7.22-17.31,4.81-4.31,10.85-6.47,18.12-6.47s13.3,2.23,19.2,6.69v-5.76h10.53v26.14h-10.53v-6.01c-4.42-6.65-10.51-9.97-18.27-9.97-4.71,0-8.32,1.08-10.84,3.25-2.52,2.17-3.78,4.76-3.78,7.77,0,2.31.64,4.35,1.92,6.1,1.28,1.76,2.91,3.05,4.89,3.87,1.98.83,5.88,1.98,11.71,3.46,7.6,1.98,13.11,3.82,16.54,5.54,3.43,1.71,6.38,4.58,8.86,8.58,2.48,4.01,3.72,8.61,3.72,13.82,0,7.35-2.59,13.43-7.77,18.22-5.18,4.79-11.59,7.19-19.23,7.19s-14.91-2.83-21.19-8.49v7.12h-10.78Z"/>
  </g>
  <g>
    <path d="M249.71,1466.04h-50.12v35.08c0,3.3.15,5.4.46,6.31.31.91.89,1.67,1.73,2.29.85.62,2.32.93,4.43.93v.93h-23.6v-.93c4.29.29,6.44-1.79,6.44-6.25v-73.36c0-4.17-.34-6.81-1.02-7.92-.68-1.11-2.49-1.73-5.42-1.86v-.93h23.6v.93c-2.6.17-4.36.66-5.27,1.49-.91.83-1.36,2.52-1.36,5.08v35.68h50.12v-32.65c0-3.72-.32-6.25-.96-7.59-.64-1.34-2.43-2.01-5.36-2.01v-.93h23.29v.93c-1.84,0-3.21.22-4.11.65s-1.51,1.1-1.84,2.01-.49,3.22-.49,6.93v70.01c0,3.59.16,5.83.49,6.72.33.89.9,1.62,1.72,2.2.82.58,2.23.87,4.23.87v.93h-23.29v-.93c2.52,0,4.2-.52,5.05-1.55s1.27-3.81,1.27-8.35v-34.7Z"/>
    <path d="M368.63,1469.57h-26.78l-13.81,34.44c-.95,2.48-1.42,4.01-1.42,4.58,0,1.36,1.01,2.04,3.04,2.04v.93h-13.57v-.93c1.82,0,3.34-.44,4.58-1.33s2.6-3.19,4.08-6.91l33.07-83.44h1.64l32.53,80.58c0,.41.83,2.37,2.5,5.86,1.67,3.49,4.21,5.24,7.63,5.24v.93h-21.31v-.93c1.94,0,2.91-.76,2.91-2.29,0-1.03-.48-2.68-1.42-4.96-.17-.17-.31-.43-.43-.81-.08-.41-.15-.62-.19-.62l-13.05-32.4ZM342.73,1467.03h24.68l-12.33-31.1-12.35,31.1Z"/>
    <path d="M512.12,1417.17l-4.34,11.03h-.93c.17-.66.25-1.55.25-2.66,0-.95-.34-1.56-1.02-1.83-.68-.27-1.76-.4-3.25-.4h-23.8v78.06c0,3.22.26,5.42.77,6.59.52,1.18,1.22,1.92,2.11,2.23.89.31,2.32.46,4.31.46v.93h-24.72v-.93c3.1-.21,5.04-.8,5.82-1.8.78-.99,1.18-3.05,1.18-6.19v-79.36h-22.81c-2.31,0-3.81.13-4.51.4s-1.05.94-1.05,2.01c0,.54.16,1.36.5,2.48h-.93l-4.34-11.03h.93c.74,1.49,1.47,2.38,2.2,2.69.72.31,2.28.46,4.67.46h60.55c2.39,0,4.11-.16,5.16-.46,1.05-.31,1.82-1.21,2.32-2.69h.93Z"/>
    <path d="M604.46,1421.5l4.34,11.4-.74.12s-1.15-1.26-3.44-3.66c-2.29-2.39-4.92-4.24-7.87-5.54-2.95-1.3-6.29-1.95-10-1.95-6.24,0-11.18,1.79-14.84,5.36-3.66,3.57-5.48,7.88-5.48,12.92,0,3.34.86,6.27,2.57,8.77s5.29,4.83,10.74,6.99c9.37,3.16,15.78,5.53,19.23,7.12,3.45,1.59,6.78,4.28,9.98,8.08,3.2,3.8,4.81,8.66,4.81,14.6,0,2.48-.29,4.84-.87,7.09-.58,2.25-1.51,4.41-2.79,6.5-1.28,2.08-2.82,3.98-4.62,5.69-1.8,1.71-3.62,3.01-5.48,3.9s-4.79,1.56-8.8,2.01c-4.01.45-6.65.68-7.93.68h-24.35v-26.51h.93c.08,8.8,2.15,14.93,6.19,18.4,4.05,3.47,10.35,5.2,18.89,5.2,7.76,0,13.66-1.84,17.69-5.51,4.03-3.67,6.04-8.09,6.04-13.26,0-3.14-.7-5.81-2.11-8.02-1.4-2.21-3.37-4.15-5.88-5.82-2.52-1.67-7.29-3.71-14.3-6.12-6.98-2.45-11.88-4.59-14.71-6.43-2.83-1.84-5.2-4.6-7.1-8.29-1.9-3.69-2.85-7.46-2.85-11.3,0-7.05,2.43-12.98,7.28-17.76,4.85-4.79,11.22-7.18,19.11-7.18,3.06,0,6.36.35,9.91,1.05s5.53,1.16,5.95,1.36c.16.08.33.12.5.12Z"/>
    <path d="M750.26,1511.57h-17.28v-14.06c-8.79,9.79-19.27,14.68-31.44,14.68-9.04,0-16.2-2.54-21.51-7.62-5.3-5.08-7.95-12.1-7.95-21.06v-54.64c0-3.3-.39-5.4-1.18-6.29-.78-.89-2.62-1.33-5.51-1.33v-.93h24.22v.93c-2.56,0-4.37.4-5.42,1.21-1.05.81-1.58,2.72-1.58,5.73v50.12c0,10.49,2.45,17.98,7.36,22.46,4.91,4.48,10.5,6.72,16.77,6.72,9.86,0,18.6-4.44,26.23-13.32v-61.76c0-5.41-.47-8.62-1.42-9.63-.95-1.01-2.44-1.52-4.46-1.52h-.87v-.93h24.04v.93c-2.97.17-4.84.66-5.61,1.49-.76.83-1.15,2.39-1.15,4.71v74.28c0,2.93.14,4.85.43,5.76.29.91.88,1.66,1.77,2.26.89.6,2.41.9,4.55.9v.93Z"/>
    <path d="M879.02,1420.32h17.66v.93c-2.68.08-4.54.65-5.58,1.7-1.03,1.05-1.55,3.27-1.55,6.66v83.07l-72.79-77.5v67.48c0,2.15.17,3.73.5,4.77.33,1.03.8,1.73,1.42,2.11.62.37,2.17.74,4.65,1.11v.93h-17.53v-.93c3.14,0,5.09-.56,5.85-1.67.76-1.11,1.15-3.78,1.15-7.99v-61.72c0-5.41-.75-9.82-2.26-13.25-1.51-3.43-4.99-5.01-10.44-4.77v-.93h17.16l68.39,72.82v-64.4c0-3.47-.62-5.58-1.86-6.35-1.24-.76-2.83-1.15-4.77-1.15v-.93Z"/>
    <path d="M949.67,1421.38v-1.05h57.36v12.58h-.93c-1.24-4.67-2.28-7.41-3.13-8.24-.85-.83-2.92-1.24-6.23-1.24h-30.11v40.95h27.94c2.77,0,4.52-.26,5.27-.77s1.14-1.27,1.18-2.26h.93v8.61h-.93c-.21-1.2-.69-2-1.46-2.42-.76-.41-2.18-.62-4.24-.62h-28.68v28.19c0,4.25.39,7.32,1.18,9.2.78,1.88,2.03,3.06,3.74,3.53,1.71.48,4.3.71,7.76.71h16.08c5.11,0,8.38-.17,9.8-.52s2.63-1.05,3.62-2.09c.99-1.05,1.75-3.33,2.29-6.86h.93v12.51h-62.38v-.93c2.11-.12,3.71-.53,4.8-1.21,1.09-.68,1.64-2.45,1.64-5.29v-73.67c0-3.34-.29-5.69-.87-7.06-.58-1.36-2.44-2.04-5.58-2.04Z"/>
    <path d="M1226.3,1420.32h14.4v.93c-4.87.25-7.3,2.79-7.3,7.62,0,1.03.12,2.46.37,4.28l9.6,69.12c.58,3.44,1.23,5.65,1.95,6.61.72.96,2.22,1.55,4.49,1.75v.93h-20.5v-.93c2.73.08,4.1-1.23,4.1-3.94,0-.62-.12-1.83-.37-3.63l-9.37-67.02-32.71,75.51h-.62l-32.89-75.39-9.25,67.4c-.17,1.02-.25,2.19-.25,3.5,0,2.38,1.39,3.56,4.17,3.56v.93h-13.94v-.93c2.11,0,3.46-.26,4.06-.77.6-.52,1.06-1.34,1.39-2.48.33-1.13.58-2.41.74-3.81l10.44-73.71c-1.7-4.09-3.4-6.55-5.09-7.38-1.7-.83-3.33-1.24-4.91-1.24v-.93h17.21l32.09,74.63,32.19-74.63Z"/>
    <path d="M1322.64,1420.32v.93c-1.2-.12-2.53.06-4,.56-1.47.5-2.33,1.22-2.6,2.17-.27.95-.4,3.2-.4,6.75v70.01c0,3.8.16,6.12.46,6.96.31.85.91,1.55,1.8,2.1.89.56,2.47.84,4.74.84v.93h-24.34v-.93c3.06,0,4.96-.59,5.7-1.76.74-1.18,1.11-3.85,1.11-8.02v-69.33c0-4.33-.41-7.17-1.24-8.51-.83-1.34-2.69-1.93-5.58-1.76v-.93h24.34Z"/>
    <path d="M1374.34,1420.32h26.14v.93c-2.85-.12-4.85.3-6.01,1.27-1.16.97-1.73,3.5-1.73,7.59v35l54.2-40.7c1.07-.74,1.61-1.42,1.61-2.04,0-.74-1.22-1.12-3.66-1.12v-.93h19.7v.93c-4.96.12-9.79,1.94-14.5,5.44l-47.24,35.24,47.12,35.78s.1.08.19.12c.08.04.14.1.19.19.08.04.16.06.25.06,6.19,4.62,10.99,7.87,14.4,9.75,3.41,1.88,6.6,2.81,9.58,2.81v.93h-31.04v-.93c2.77,0,4.15-.31,4.15-.93,0-.54-1.14-1.67-3.41-3.41l-51.54-39.15v33.84c0,3.96.28,6.39.84,7.3.56.91,1.3,1.56,2.23,1.95.93.39,2.45.53,4.55.4v.93h-26.02v-.93c3.47.17,5.65-.36,6.54-1.58.89-1.22,1.33-3.79,1.33-7.71v-70.76c0-4.04-.44-6.66-1.33-7.86-.89-1.2-3.07-1.69-6.54-1.49v-.93Z"/>
    <path d="M1608.84,1511.57h-17.28v-14.06c-8.79,9.79-19.27,14.68-31.44,14.68-9.04,0-16.2-2.54-21.51-7.62-5.3-5.08-7.95-12.1-7.95-21.06v-54.64c0-3.3-.39-5.4-1.18-6.29-.78-.89-2.62-1.33-5.51-1.33v-.93h24.22v.93c-2.56,0-4.37.4-5.42,1.21-1.05.81-1.58,2.72-1.58,5.73v50.12c0,10.49,2.45,17.98,7.36,22.46,4.91,4.48,10.5,6.72,16.77,6.72,9.86,0,18.6-4.44,26.23-13.32v-61.76c0-5.41-.47-8.62-1.42-9.63-.95-1.01-2.44-1.52-4.46-1.52h-.87v-.93h24.04v.93c-2.97.17-4.84.66-5.61,1.49-.76.83-1.15,2.39-1.15,4.71v74.28c0,2.93.14,4.85.43,5.76.29.91.88,1.66,1.77,2.26.89.6,2.41.9,4.55.9v.93Z"/>
    <path d="M1793.82,1418.96c12.8,0,23.27,3.89,31.41,11.68,8.13,7.78,12.2,17.5,12.2,29.15,0,14.99-4.71,27.61-14.12,37.85s-21.91,15.36-37.48,15.36c-12.64,0-22.98-4.13-31.04-12.39-8.05-8.26-12.08-18.17-12.08-29.73,0-7.81,1.94-15.82,5.82-24.04,3.88-8.22,9.73-14.92,17.53-20.1,7.81-5.18,17.06-7.77,27.75-7.77ZM1793.45,1508.17c6.28,0,12.47-1.68,18.58-5.05,6.11-3.37,10.92-8,14.43-13.91,3.51-5.91,5.27-11.98,5.27-18.21,0-8.84-2.36-16.87-7.09-24.1-4.73-7.23-10.86-12.88-18.4-16.97-7.54-4.09-14.51-6.13-20.91-6.13-9.04,0-17.25,3.41-24.62,10.22-7.37,6.81-11.06,15.28-11.06,25.4,0,12.93,4.5,24.28,13.5,34.07,9,9.79,19.1,14.68,30.29,14.68Z"/>
    <path d="M1965.2,1420.32h17.66v.93c-2.68.08-4.54.65-5.58,1.7-1.03,1.05-1.55,3.27-1.55,6.66v83.07l-72.79-77.5v67.48c0,2.15.17,3.73.5,4.77.33,1.03.8,1.73,1.42,2.11.62.37,2.17.74,4.65,1.11v.93h-17.53v-.93c3.14,0,5.09-.56,5.85-1.67.76-1.11,1.15-3.78,1.15-7.99v-61.72c0-5.41-.75-9.82-2.26-13.25-1.51-3.43-4.99-5.01-10.44-4.77v-.93h17.16l68.39,72.82v-64.4c0-3.47-.62-5.58-1.86-6.35-1.24-.76-2.83-1.15-4.77-1.15v-.93Z"/>
    <path d="M2035.86,1421.38v-1.05h57.36v12.58h-.93c-1.24-4.67-2.28-7.41-3.13-8.24-.85-.83-2.92-1.24-6.23-1.24h-30.11v40.95h27.94c2.77,0,4.52-.26,5.27-.77.74-.52,1.13-1.27,1.18-2.26h.93v8.61h-.93c-.21-1.2-.69-2-1.46-2.42-.76-.41-2.18-.62-4.24-.62h-28.68v28.19c0,4.25.39,7.32,1.17,9.2.78,1.88,2.03,3.06,3.74,3.53,1.71.48,4.3.71,7.76.71h16.08c5.11,0,8.38-.17,9.8-.52s2.63-1.05,3.62-2.09c.99-1.05,1.75-3.33,2.29-6.86h.93v12.51h-62.38v-.93c2.11-.12,3.71-.53,4.8-1.21,1.09-.68,1.64-2.45,1.64-5.29v-73.67c0-3.34-.29-5.69-.87-7.06-.58-1.36-2.44-2.04-5.58-2.04Z"/>
    <path d="M2146.22,1468.58v-5.2h26.14v5.2h-26.14Z"/>
    <path d="M2307.29,1420.32h14.4v.93c-4.87.25-7.3,2.79-7.3,7.62,0,1.03.12,2.46.37,4.28l9.59,69.12c.58,3.44,1.23,5.65,1.95,6.61.72.96,2.22,1.55,4.49,1.75v.93h-20.5v-.93c2.73.08,4.1-1.23,4.1-3.94,0-.62-.12-1.83-.37-3.63l-9.37-67.02-32.71,75.51h-.62l-32.89-75.39-9.25,67.4c-.17,1.02-.25,2.19-.25,3.5,0,2.38,1.39,3.56,4.17,3.56v.93h-13.94v-.93c2.11,0,3.46-.26,4.06-.77.6-.52,1.06-1.34,1.39-2.48.33-1.13.58-2.41.74-3.81l10.44-73.71c-1.7-4.09-3.4-6.55-5.09-7.38-1.7-.83-3.33-1.24-4.91-1.24v-.93h17.21l32.09,74.63,32.19-74.63Z"/>
    <path d="M2428.11,1469.57h-26.78l-13.81,34.44c-.95,2.48-1.42,4.01-1.42,4.58,0,1.36,1.01,2.04,3.04,2.04v.93h-13.57v-.93c1.82,0,3.34-.44,4.58-1.33s2.6-3.19,4.08-6.91l33.07-83.44h1.64l32.53,80.58c0,.41.83,2.37,2.5,5.86,1.67,3.49,4.21,5.24,7.63,5.24v.93h-21.31v-.93c1.94,0,2.91-.76,2.91-2.29,0-1.03-.48-2.68-1.42-4.96-.17-.17-.31-.43-.43-.81-.08-.41-.15-.62-.19-.62l-13.05-32.4ZM2402.2,1467.03h24.68l-12.33-31.1-12.35,31.1Z"/>
    <path d="M2585.78,1420.32h17.66v.93c-2.69.08-4.54.65-5.58,1.7-1.03,1.05-1.55,3.27-1.55,6.66v83.07l-72.79-77.5v67.48c0,2.15.16,3.73.5,4.77.33,1.03.81,1.73,1.42,2.11s2.17.74,4.65,1.11v.93h-17.53v-.93c3.14,0,5.09-.56,5.85-1.67.76-1.11,1.15-3.78,1.15-7.99v-61.72c0-5.41-.75-9.82-2.26-13.25-1.51-3.43-4.99-5.01-10.44-4.77v-.93h17.16l68.39,72.82v-64.4c0-3.47-.62-5.58-1.86-6.35-1.24-.76-2.83-1.15-4.77-1.15v-.93Z"/>
    <path d="M2733.72,1511.57v-.93c2.85,0,4.7-.54,5.54-1.61.85-1.07,1.27-2.91,1.27-5.51v-74.66c0-2.64-.33-4.55-.99-5.73-.66-1.18-2.64-1.8-5.95-1.89v-.93h24.47v.93c-2.27,0-3.86.29-4.77.87-.91.58-1.51,1.26-1.8,2.04-.29.79-.43,2.56-.43,5.33v64.05c0,5.49,1.32,9.36,3.96,11.62,2.64,2.25,7.16,3.38,13.55,3.38h11.13c5.36,0,9.29-1.32,11.78-3.96,2.5-2.64,3.89-7.62,4.18-14.93h.93v21.93h-62.88Z"/>
    <path d="M2873.38,1420.32v.93c-1.2-.12-2.53.06-4,.56-1.47.5-2.33,1.22-2.6,2.17-.27.95-.4,3.2-.4,6.75v70.01c0,3.8.16,6.12.46,6.96.31.85.91,1.55,1.8,2.1.89.56,2.47.84,4.74.84v.93h-24.34v-.93c3.06,0,4.96-.59,5.7-1.76.74-1.18,1.11-3.85,1.11-8.02v-69.33c0-4.33-.41-7.17-1.24-8.51-.83-1.34-2.69-1.93-5.58-1.76v-.93h24.34Z"/>
    <path d="M2966,1513h-1.18l-32.49-80.35c-2.31-5.66-4.21-8.97-5.7-9.94-1.49-.97-3.02-1.46-4.58-1.46v-.93h21.06v.93c-1.86-.12-2.79.6-2.79,2.17,0,.62.12,1.28.37,1.98l28.33,70.23,28.08-70.2c.37-.94.56-1.7.56-2.27,0-1.39-1.07-2.03-3.2-1.91v-.93h13.69v.93c-.95,0-1.95.13-3,.4-1.05.27-2.14,1.33-3.25,3.19-1.12,1.86-1.69,2.85-1.73,2.97l-34.16,85.18Z"/>
    <path d="M3057.44,1421.38v-1.05h57.36v12.58h-.93c-1.24-4.67-2.28-7.41-3.13-8.24-.85-.83-2.92-1.24-6.23-1.24h-30.11v40.95h27.94c2.77,0,4.52-.26,5.27-.77s1.14-1.27,1.18-2.26h.93v8.61h-.93c-.21-1.2-.69-2-1.46-2.42-.76-.41-2.18-.62-4.24-.62h-28.68v28.19c0,4.25.39,7.32,1.18,9.2.78,1.88,2.03,3.06,3.74,3.53,1.71.48,4.3.71,7.76.71h16.08c5.11,0,8.38-.17,9.8-.52s2.63-1.05,3.62-2.09c.99-1.05,1.75-3.33,2.29-6.86h.93v12.51h-62.38v-.93c2.11-.12,3.71-.53,4.8-1.21,1.09-.68,1.64-2.45,1.64-5.29v-73.67c0-3.34-.29-5.69-.87-7.06-.58-1.36-2.44-2.04-5.58-2.04Z"/>
    <path d="M3312.79,1497.26l-4.15,14.31h-60.03v-2.29c17.01-13.47,28.73-25.32,35.16-35.55,6.42-10.23,9.63-19.74,9.63-28.55,0-7.4-1.85-13.1-5.54-17.11-3.7-4.01-8.27-6.01-13.72-6.01-4.96,0-9.65,1.65-14.09,4.96s-7.86,7.23-10.25,11.77l-2.42-1.24c4.21-6.85,8.77-11.7,13.66-14.53,4.89-2.83,10.44-4.24,16.63-4.24,8.14,0,14.63,2.45,19.48,7.35s7.28,10.78,7.28,17.64c0,6.37-2.55,13.46-7.65,21.29-5.1,7.83-13.58,17.33-25.43,28.49l-10.53,9.92h38.16c3.72,0,6.26-.35,7.62-1.05,1.36-.7,3.01-2.42,4.96-5.14h1.24Z"/>
    <path d="M3393.85,1513c-9.13,0-16.52-3.88-22.18-11.65-5.66-7.76-8.49-18.27-8.49-31.53,0-15.12,3.2-27.43,9.6-36.95,6.4-9.52,14.5-14.28,24.28-14.28,5.08,0,9.93,1.51,14.56,4.52,4.62,3.02,8.38,7.84,11.27,14.46,2.89,6.63,4.34,14.88,4.34,24.75,0,14.12-3.08,26.1-9.23,35.93-6.15,9.83-14.21,14.74-24.16,14.74ZM3398.06,1509.65c4.79,0,9.2-2.96,13.23-8.89,4.03-5.93,6.04-15,6.04-27.23,0-15.49-2.18-27.97-6.54-37.45-4.36-9.48-10.38-14.22-18.06-14.22-5.41,0-10.04,3.05-13.88,9.14-3.84,6.09-5.76,15.31-5.76,27.66,0,14.7,2.27,26.88,6.81,36.52,4.54,9.64,10.59,14.46,18.15,14.46Z"/>
    <path d="M3542.93,1497.26l-4.15,14.31h-60.03v-2.29c17.01-13.47,28.73-25.32,35.16-35.55,6.42-10.23,9.63-19.74,9.63-28.55,0-7.4-1.85-13.1-5.54-17.11-3.7-4.01-8.27-6.01-13.72-6.01-4.96,0-9.65,1.65-14.09,4.96-4.44,3.3-7.86,7.23-10.25,11.77l-2.42-1.24c4.21-6.85,8.77-11.7,13.66-14.53,4.89-2.83,10.44-4.24,16.63-4.24,8.13,0,14.63,2.45,19.48,7.35,4.85,4.9,7.28,10.78,7.28,17.64,0,6.37-2.55,13.46-7.65,21.29-5.1,7.83-13.58,17.33-25.43,28.49l-10.53,9.92h38.16c3.72,0,6.26-.35,7.62-1.05,1.36-.7,3.01-2.42,4.96-5.14h1.24Z"/>
    <path d="M3645.74,1418.78l.62,1.61c-13.92,2.97-24.28,8.93-31.1,17.87-6.81,8.94-10.53,18.55-11.15,28.84l.25.25c3.01-5.41,6.83-9.23,11.46-11.46,4.62-2.23,9.15-3.34,13.57-3.34,7.89,0,14.53,2.85,19.92,8.54s8.08,12.69,8.08,20.98-2.97,15.75-8.92,21.75-13.03,9-21.25,9c-9.25,0-17.23-3.65-23.94-10.96-6.71-7.3-10.07-16.41-10.07-27.3,0-13.49,4.49-25.52,13.47-36.06,8.98-10.54,22-17.12,39.06-19.72ZM3623,1457.86c-4.87,0-9.16,1.8-12.85,5.41-3.7,3.61-5.54,7.79-5.54,12.53,0,7.88,2.72,15.43,8.15,22.65,5.43,7.22,11.64,10.83,18.62,10.83,5.24,0,9.46-1.82,12.64-5.48,3.18-3.65,4.77-7.99,4.77-13.02,0-7.8-2.52-15.23-7.56-22.3-5.04-7.07-11.11-10.61-18.21-10.61Z"/>
  </g>
</svg>